<svg width="64" height="90" viewBox="0 0 64 90" fill="none" xmlns="http://www.w3.org/2000/svg">
<path d="M5.81139 82.7578L0 17.5518H63.8589L58.0412 82.7476L31.8903 89.9999L5.81139 82.7578Z" fill="#E54C21"/>
<path d="M31.7424 84.3983L52.9046 78.5338L57.8835 22.7801H31.7424V84.3983Z" fill="#F16524"/>
<path d="M31.9292 47.0406H21.3504L20.6198 38.8541H31.9292V30.8596H11.8828L12.0742 33.0044L14.0391 55.035H31.9292V47.0406ZM31.9292 67.8032L31.8943 67.8125L22.9906 65.4084L22.4215 59.0324H14.3963L15.5163 71.5849L31.8924 76.131L31.9292 76.1208V67.8032Z" fill="#EBEBEB"/>
<path d="M5.9751 0H10.0238V3.94625H13.7273V0H17.7762V11.9502H13.7275V7.94857H10.0239V11.9502H5.97545V0H5.9751ZM23.1003 3.96286H19.5362V0H30.7153V3.96286H27.1495V11.9502H23.1006L23.1003 3.96286ZM32.4894 0H36.7108L39.3077 4.19895L41.9022 0H46.1254V11.9502H42.0934V6.02703L39.3079 10.276H39.2384L36.4508 6.02703V11.9502H32.4896V0H32.4894ZM48.1403 0H52.1902V8.00015H57.8838V11.9502H48.1403V0Z" fill="black"/>
<path d="M31.9021 47.0406V55.035H41.7463L40.8183 65.4033L31.9021 67.8099V76.1271L48.2911 71.5849L48.4113 70.2342L50.2899 49.1874L50.485 47.0406H48.3307H31.9021ZM31.9021 30.8596V38.8541H51.2124L51.3728 37.0572L51.7371 33.0044L51.9282 30.8596H31.9021Z" fill="white"/>
</svg>
