<svg width="52" height="58" viewBox="0 0 52 58" fill="none" xmlns="http://www.w3.org/2000/svg">
<path d="M13.248 44.384C10.912 44.384 8.864 43.84 7.104 42.752C5.376 41.632 4.032 40.128 3.072 38.24C2.112 36.352 1.632 34.272 1.632 32C1.632 29.696 2.112 27.616 3.072 25.76C4.032 23.872 5.376 22.384 7.104 21.296C8.864 20.176 10.912 19.616 13.248 19.616C15.232 19.616 16.928 20 18.336 20.768C19.776 21.536 20.944 22.576 21.84 23.888V20H25.44V44H21.84V40.16C20.944 41.44 19.776 42.464 18.336 43.232C16.928 44 15.232 44.384 13.248 44.384ZM13.728 41.12C15.52 41.12 17.024 40.704 18.24 39.872C19.488 39.04 20.432 37.936 21.072 36.56C21.712 35.152 22.032 33.632 22.032 32C22.032 30.336 21.712 28.816 21.072 27.44C20.432 26.064 19.488 24.96 18.24 24.128C17.024 23.296 15.52 22.88 13.728 22.88C11.968 22.88 10.448 23.296 9.168 24.128C7.888 24.96 6.912 26.064 6.24 27.44C5.568 28.816 5.232 30.336 5.232 32C5.232 33.632 5.568 35.152 6.24 36.56C6.912 37.936 7.888 39.04 9.168 39.872C10.448 40.704 11.968 41.12 13.728 41.12Z" fill="black"/>
<path d="M38.752 13.616C41.088 13.616 43.136 14.16 44.896 15.248C46.624 16.368 47.968 17.872 48.928 19.76C49.888 21.648 50.368 23.728 50.368 26C50.368 28.304 49.888 30.384 48.928 32.24C47.968 34.128 46.624 35.616 44.896 36.704C43.136 37.824 41.088 38.384 38.752 38.384C36.768 38.384 35.072 38 33.664 37.232C32.224 36.464 31.056 35.424 30.16 34.112V38H26.56L26.56 14H30.16L30.16 17.84C31.056 16.56 32.224 15.536 33.664 14.768C35.072 14 36.768 13.616 38.752 13.616ZM38.272 16.88C36.48 16.88 34.976 17.296 33.76 18.128C32.512 18.96 31.568 20.064 30.928 21.44C30.288 22.848 29.968 24.368 29.968 26C29.968 27.664 30.288 29.184 30.928 30.56C31.568 31.936 32.512 33.04 33.76 33.872C34.976 34.704 36.48 35.12 38.272 35.12C40.032 35.12 41.552 34.704 42.832 33.872C44.112 33.04 45.088 31.936 45.76 30.56C46.432 29.184 46.768 27.664 46.768 26C46.768 24.368 46.432 22.848 45.76 21.44C45.088 20.064 44.112 18.96 42.832 18.128C41.552 17.296 40.032 16.88 38.272 16.88Z" fill="black"/>
</svg>
