<svg xmlns="http://www.w3.org/2000/svg" width="201.598" height="47.347" viewBox="0 0 201.598 47.347"><g transform="translate(-141 -73.471)"><path d="M23.7,0A23.7,23.7,0,0,0,21.9,47.329l-.138-5.3a18.436,18.436,0,1,1,5.4-.219l.79,5.209A23.7,23.7,0,0,0,23.7,0Z" transform="translate(141 73.471)"></path><path d="M62.036,48.91a12.966,12.966,0,0,0-2.111,25.759l-.5-19.295,1.78-.5L62.848,64.9l7.081-6.028.869,2.308-6.936,8.169.792,5.229A12.97,12.97,0,0,0,62.036,48.91Z" transform="translate(102.697 35.293)"></path><path d="M693.34,101.56h7.077l5.19,16.69,5.124-16.71h6.783l-8.373,24.438H701.9Z" transform="translate(-400.2 -5.788)"></path><path d="M608.2,113.133a13.488,13.488,0,0,0,.1-1.615A12.316,12.316,0,1,0,596,124.365a12.322,12.322,0,0,0,11.435-8.106h-5.988c-.439,2.973-5.3,3.129-5.3,3.129-5.96,0-5.655-6.256-5.655-6.256Zm-12.716-9.359a5.343,5.343,0,0,1,5.769,5.152H590.486C590.484,104.171,595.482,103.774,595.482,103.774Z" transform="translate(-314.61 -3.548)"></path><path d="M418.3,113.133a13.5,13.5,0,0,0,.1-1.615,12.316,12.316,0,1,0-12.3,12.848,12.324,12.324,0,0,0,11.435-8.106h-5.988c-.439,2.973-5.3,3.129-5.3,3.129-5.96,0-5.655-6.256-5.655-6.256Zm-12.718-9.359a5.341,5.341,0,0,1,5.769,5.152H400.584C400.581,104.171,405.58,103.774,405.58,103.774Z" transform="translate(-166.38 -3.548)"></path><path d="M289.569,59.12V71.136a10.218,10.218,0,0,0-7.434-3.338c-6.1,0-11.055,5.749-11.055,12.839s4.948,12.839,11.055,12.839a10.227,10.227,0,0,0,7.434-3.335v2.728h6.563V59.12Zm-5.732,29.4c-3.287,0-5.953-3.487-5.953-7.79s2.664-7.79,5.953-7.79,5.953,3.487,5.953,7.79S287.125,88.515,283.838,88.515Z" transform="translate(-70.597 27.324)"></path><path d="M520.463,103.722V99.39H513.9v24.4h6.563V112.381c.794-9.392,9.357-7.129,9.357-7.129V98.969C524.374,97.821,521.519,101.767,520.463,103.722Z" transform="translate(-260.134 -3.621)"></path><path d="M816.151,98.67a12.849,12.849,0,1,0,12.641,12.848A12.745,12.745,0,0,0,816.151,98.67Zm-.061,20.936c-3.423,0-6.2-3.539-6.2-7.906s2.776-7.906,6.2-7.906,6.2,3.539,6.2,7.906S819.513,119.606,816.09,119.606Z" transform="translate(-486.195 -3.548)"></path></g></svg>