<svg width="90" height="90" viewBox="0 0 90 90" fill="none" xmlns="http://www.w3.org/2000/svg">
<g clip-path="url(#clip0)">
<path d="M88.3027 40.9904L49.0078 1.69762C46.7462 -0.565386 43.0759 -0.565386 40.8115 1.69762L32.6517 9.85739L43.0028 20.2084C45.4082 19.3956 48.1665 19.9409 50.084 21.8583C52.0105 23.7881 52.5519 26.57 51.7194 28.9831L61.695 38.959C64.1085 38.1276 66.8932 38.6655 68.8208 40.5963C71.5149 43.2892 71.5149 47.6539 68.8208 50.3486C66.1261 53.0437 61.7614 53.0437 59.0653 50.3486C57.0389 48.3201 56.5383 45.3441 57.5641 42.8477L48.2611 33.5446L48.26 58.0264C48.9344 58.3598 49.5504 58.8003 50.084 59.3307C52.778 62.0236 52.778 66.3886 50.084 69.0855C47.3892 71.7792 43.0225 71.7792 40.3316 69.0855C37.6376 66.3886 37.6376 62.024 40.3316 59.331C40.9772 58.6851 41.7445 58.1736 42.589 57.826V33.1161C41.7432 32.7708 40.9755 32.259 40.3316 31.611C38.2904 29.5727 37.7997 26.5777 38.8456 24.0714L28.6418 13.8666L1.69805 40.8086C-0.566016 43.0737 -0.566016 46.7444 1.69805 49.0078L40.9936 88.3012C43.2559 90.5646 46.9255 90.5646 49.1906 88.3012L88.3023 49.1902C90.5657 46.9261 90.5657 43.2534 88.3023 40.9904" fill="#DE4C36"/>
</g>
<defs>
<clipPath id="clip0">
<rect width="90" height="90" fill="white"/>
</clipPath>
</defs>
</svg>
