<svg width="90" height="90" viewBox="0 0 90 90" fill="none" xmlns="http://www.w3.org/2000/svg">
<path d="M0 0H90V90H0V0Z" fill="#F0DB4F"/>
<path d="M82.6341 68.5352C81.9754 64.4288 79.2976 60.981 71.367 57.7643C68.6122 56.4982 65.541 55.5914 64.6256 53.5039C64.3005 52.289 64.2577 51.6046 64.463 50.8689C65.0533 48.482 67.9022 47.7377 70.1607 48.4221C71.6151 48.9097 72.9925 50.0306 73.8223 51.8185C77.7064 49.3034 77.6978 49.3204 80.4098 47.5923C79.4174 46.0524 78.887 45.3423 78.2368 44.6836C75.9012 42.0743 72.7187 40.7311 67.6284 40.8338C66.7472 40.945 65.8576 41.0647 64.9763 41.176C62.4355 41.8176 60.0143 43.1522 58.5942 44.9403C54.3337 49.7739 55.5486 58.2348 60.733 61.7169C65.8404 65.5496 73.3432 66.4222 74.3014 70.0068C75.2339 74.3956 71.0762 75.8157 66.944 75.311C63.8984 74.6779 62.2045 73.1294 60.3737 70.3148C57.003 72.2654 57.003 72.2654 53.5382 74.2587C54.3595 76.0553 55.2235 76.868 56.6009 78.4251C63.1199 85.0382 79.4345 84.7131 82.3604 74.7036C82.4801 74.3613 83.2673 72.0685 82.6341 68.5352ZM48.9269 41.3641H40.5086C40.5086 48.636 40.4745 55.8565 40.4745 63.1284C40.4745 67.7567 40.714 72.0001 39.9612 73.3004C38.7293 75.8583 35.5382 75.5419 34.0838 75.0456C32.6038 74.3184 31.8509 73.2833 30.9783 71.8204C30.7388 71.4012 30.5591 71.0761 30.4991 71.0504C28.215 72.4449 25.9392 73.8479 23.655 75.2425C24.7929 77.578 26.4697 79.6056 28.617 80.923C31.8252 82.8479 36.137 83.4382 40.6456 82.403C43.58 81.5475 46.1122 79.7767 47.4383 77.0818C49.3546 73.5485 48.944 69.271 48.9269 64.54C48.9697 56.8233 48.9269 49.1065 48.9269 41.3641Z" fill="#323330"/>
</svg>
