<svg width="120" height="90" viewBox="0 0 120 90" fill="none" xmlns="http://www.w3.org/2000/svg">
<g clip-path="url(#clip0)">
<path d="M103.266 51.7032C99.0703 51.7269 95.4375 52.7344 92.3906 54.2347C91.2656 52.0081 90.1406 50.0626 89.9534 48.6097C89.7424 46.9222 89.4846 45.8907 89.7424 43.8753C90 41.8594 91.1719 39.0001 91.1719 38.7657C91.1482 38.5548 90.9138 37.5235 88.5 37.5001C86.0862 37.4766 84 37.9688 83.7656 38.6016C83.5313 39.2344 83.0625 40.6876 82.7578 42.1876C82.3359 44.3907 77.9297 52.1954 75.4219 56.2969C74.6016 54.7032 73.8984 53.2969 73.7576 52.1717C73.5469 50.4844 73.2888 49.453 73.5469 47.4376C73.8047 45.4217 74.9766 42.5626 74.9766 42.3282C74.9531 42.1173 74.7188 41.086 72.3049 41.0626C69.8906 41.0391 67.8049 41.5313 67.5706 42.1641C67.3362 42.7969 67.0784 44.2969 66.5627 45.7501C66.0703 47.2032 60.2109 60.2345 58.6875 63.6329C57.9141 65.3673 57.2346 66.7501 56.7422 67.6876C56.25 68.6251 56.7188 67.7579 56.6719 67.8516C56.25 68.6485 56.0156 69.0938 56.0156 69.0938V69.1175C55.6875 69.7034 55.3359 70.2657 55.1716 70.2657C55.0545 70.2657 54.8201 68.6954 55.2185 66.5394C56.0857 62.0157 58.1951 54.9612 58.1719 54.7034C58.1719 54.5862 58.5701 53.3438 56.8123 52.7112C55.1013 52.0784 54.4922 53.1331 54.3513 53.1331C54.2107 53.1331 54.0935 53.5081 54.0935 53.5081C54.0935 53.5081 55.992 45.563 50.4607 45.563C46.992 45.563 42.2107 49.3365 39.8435 52.7818C38.3435 53.6021 35.156 55.3362 31.781 57.188C30.492 57.8912 29.156 58.6412 27.8904 59.3209L27.6328 59.0391C20.9297 51.8907 8.53126 46.8282 9.04688 37.2188C9.23438 33.7266 10.4531 24.5157 32.8596 13.3594C51.2112 4.21882 65.9065 6.72663 68.4609 12.3048C72.0938 20.2735 60.6094 35.086 41.5315 37.2188C34.2659 38.0391 30.4453 35.2266 29.4846 34.1719C28.4768 33.0704 28.3362 33.0235 27.9612 33.2344C27.3518 33.5626 27.7268 34.5469 27.9612 35.1329C28.5237 36.6094 30.8674 39.2344 34.8518 40.5469C38.3438 41.6954 46.8752 42.3282 57.1877 38.3438C68.7424 33.8673 77.7659 21.4454 75.1174 11.0626C72.4221 0.492253 54.8909 -2.9765 38.3206 2.90632C28.4531 6.42194 17.7656 11.9063 10.0781 19.1016C0.937509 27.6329 -0.515616 35.086 0.0937593 38.1798C2.22681 49.2188 17.4375 56.4141 23.5313 61.7344C23.2266 61.8983 22.9453 62.0623 22.6875 62.2032C19.6406 63.703 8.03907 69.7735 5.13282 76.1952C1.85157 83.4608 5.64845 88.6876 8.1797 89.3907C16.0078 91.5704 24.0234 87.6563 28.3594 81.211C32.6716 74.7657 32.1563 66.3985 30.1641 62.5782L30.0935 62.4376L32.4841 61.0313C34.0313 60.1173 35.5547 59.2735 36.8904 58.5467C36.1406 60.5858 35.6013 62.9998 35.3203 66.5155C34.9922 70.6407 36.6797 75.9842 38.9063 78.0936C39.8906 79.0074 41.0625 79.0311 41.7891 79.0311C44.3672 79.0311 45.5391 76.898 46.8281 74.3436C48.4219 71.2264 49.8281 67.617 49.8281 67.617C49.8281 67.617 48.0703 77.3905 52.875 77.3905C54.6328 77.3905 56.3906 75.117 57.1875 73.9452V73.9686C57.1875 73.9686 57.2344 73.8983 57.3281 73.7342C57.4265 73.5888 57.5203 73.4404 57.6094 73.2891V73.2423C58.3125 72.0235 59.8828 69.2345 62.2266 64.6173C65.2498 58.6641 68.1563 51.211 68.1563 51.211C68.1563 51.211 68.4375 53.0391 69.3047 56.0391C69.8201 57.8206 70.9451 59.7657 71.8123 61.6641C71.1091 62.6485 70.6873 63.2112 70.6873 63.2112L70.7107 63.2347C70.1484 63.9847 69.5154 64.7818 68.8594 65.5784C66.4688 68.4378 63.6094 71.6959 63.2344 72.6334C62.7891 73.7347 62.8828 74.555 63.75 75.2115C64.3828 75.6802 65.5078 75.7738 66.7031 75.6802C68.8594 75.5394 70.3594 75.0005 71.1094 74.6722C72.2813 74.2503 73.6172 73.6175 74.9063 72.68C77.25 70.9459 78.6797 68.4849 78.5391 65.2037C78.4688 63.399 77.8828 61.6177 77.1563 59.9302C77.3672 59.6255 77.5784 59.3206 77.7891 58.9927C81.4922 53.5784 84.3516 47.6255 84.3516 47.6255C84.3516 47.6255 84.6328 49.4537 85.5 52.4537C85.9451 53.9771 86.8359 55.6414 87.6328 57.282C84.1641 60.118 81.9844 63.3992 81.2344 65.5555C79.8516 69.5398 80.9297 71.3445 82.9688 71.7664C83.8826 71.9539 85.1953 71.532 86.1795 71.1102C87.3982 70.7117 88.8748 70.0318 90.2344 69.0242C92.5781 67.2898 94.8281 64.8758 94.7109 61.618C94.6406 60.118 94.2422 58.6414 93.7031 57.2351C96.6563 56.0164 100.476 55.3133 105.328 55.8992C115.758 57.118 117.82 63.6336 117.422 66.3523C117.024 69.0713 114.844 70.5711 114.117 71.0398C113.391 71.4852 113.156 71.6495 113.227 71.9773C113.32 72.4698 113.648 72.4461 114.281 72.3526C115.148 72.2117 119.766 70.126 119.953 65.1106C120.234 58.6644 114.117 51.6331 103.266 51.7032ZM22.8281 78.8204C19.3828 82.5938 14.5313 84.0235 12.4688 82.8048C10.2422 81.5157 11.1091 75.961 15.3516 71.9532C17.9297 69.5157 21.2813 67.2657 23.4844 65.8829C23.9766 65.5782 24.7266 65.1331 25.6172 64.5938C25.7578 64.5003 25.8516 64.4532 25.8516 64.4532C26.0156 64.3595 26.2031 64.2423 26.3906 64.1251C27.9609 69.8438 26.4609 74.8595 22.8281 78.8204ZM48.0234 61.6876C46.8281 64.6173 44.2969 72.1407 42.7734 71.7188C41.4607 71.3673 40.6641 65.672 42.5154 60.0469C43.4529 57.2108 45.4451 53.836 46.617 52.5233C48.5156 50.4139 50.5779 49.7108 51.0938 50.578C51.7031 51.7032 48.7734 59.8595 48.0234 61.6876ZM68.8125 71.6251C68.2969 71.8831 67.8281 72.0704 67.6172 71.93C67.4531 71.8363 67.8279 71.4847 67.8279 71.4847C67.8279 71.4847 70.4295 68.6956 71.4607 67.4066C72.0466 66.6568 72.7498 65.7896 73.4998 64.805V65.0862C73.5 68.461 70.2656 70.711 68.8125 71.6251ZM84.8435 67.9688C84.4685 67.6876 84.5156 66.8204 85.781 64.1016C86.2734 63.0235 87.3982 61.2188 89.3435 59.5079C89.5779 60.211 89.7188 60.8905 89.6951 61.5235C89.6719 65.7423 86.6719 67.3126 84.8435 67.9688Z" fill="#CF649A"/>
</g>
<defs>
<clipPath id="clip0">
<rect width="120" height="90" fill="white"/>
</clipPath>
</defs>
</svg>
