<svg width="60" height="90" viewBox="0 0 60 90" fill="none" xmlns="http://www.w3.org/2000/svg">
<g clip-path="url(#clip0)">
<path d="M15.003 89.9999C23.2813 89.9999 29.9999 83.2799 29.9999 74.9999V59.9999H15.003C6.72463 59.9999 0.00598145 66.7199 0.00598145 74.9999C0.00598145 83.2799 6.72463 89.9999 15.003 89.9999Z" fill="#0ACF83"/>
<path d="M0.00598145 45C0.00598145 36.72 6.72463 30 15.003 30H29.9999V60H15.003C6.72463 60 0.00598145 53.28 0.00598145 45Z" fill="#A259FF"/>
<path d="M0.00598145 15C0.00598145 6.72 6.72463 0 15.003 0H30V30H15.003C6.72463 30 0.00598145 23.28 0.00598145 15Z" fill="#F24E1E"/>
<path d="M30 0H44.997C53.2754 0 59.994 6.72 59.994 15C59.994 23.28 53.2754 30 44.997 30H30V0Z" fill="#FF7262"/>
<path d="M59.994 45C59.994 53.28 53.2754 60 44.997 60C36.7187 60 30 53.28 30 45C30 36.72 36.7187 30 44.997 30C53.2754 30 59.994 36.72 59.994 45Z" fill="#1ABCFE"/>
</g>
<defs>
<clipPath id="clip0">
<rect width="60" height="90" fill="white"/>
</clipPath>
</defs>
</svg>
