<svg width="315" height="313" viewBox="0 0 315 313" fill="none" xmlns="http://www.w3.org/2000/svg">
<path d="M214.824 227.966C214.469 227.924 214.11 228.021 213.824 228.236C212.714 228.976 212.824 228.936 211.824 228.346C211.136 227.943 210.469 227.506 209.824 227.036C209.184 226.536 208.514 226.036 207.824 225.606C207.783 225.514 207.719 225.434 207.638 225.373C207.558 225.312 207.464 225.272 207.364 225.256C207.231 225.156 207.082 225.079 206.924 225.026C205.893 224.831 204.83 224.904 203.834 225.236C203.691 225.346 203.515 225.406 203.334 225.406C203.154 225.406 202.978 225.346 202.834 225.236C202.712 225.192 202.577 225.192 202.454 225.236C202.053 225.296 201.656 225.38 201.264 225.486C201.057 225.556 200.833 225.563 200.621 225.506C200.409 225.449 200.219 225.331 200.074 225.166C199.074 224.166 197.994 223.216 196.964 222.236C196.638 222.05 196.374 221.771 196.204 221.436C196.238 221.236 196.312 221.045 196.42 220.873C196.528 220.702 196.669 220.553 196.834 220.436C197.134 219.946 197.464 219.436 197.784 218.996C197.944 218.756 197.594 218.466 197.834 218.236C198.375 218.085 198.881 217.831 199.324 217.486C199.454 217.448 199.581 217.401 199.704 217.346C199.965 217.159 200.271 217.044 200.591 217.014C200.911 216.985 201.233 217.04 201.524 217.176C201.784 217.316 201.914 217.176 202.034 216.786C202.154 216.396 202.294 216.366 202.624 216.516C202.685 216.55 202.742 216.59 202.794 216.636C202.855 216.693 202.936 216.725 203.019 216.725C203.103 216.725 203.183 216.693 203.244 216.636C203.584 216.396 203.594 216.416 203.424 215.906C203.424 215.816 203.424 215.696 203.424 215.606C203.406 215.498 203.363 215.396 203.299 215.306C203.236 215.217 203.153 215.143 203.057 215.09C202.961 215.038 202.854 215.007 202.744 215.001C202.635 214.995 202.526 215.014 202.424 215.056C202.004 215.186 201.604 215.376 201.194 215.536C200.987 215.647 200.769 215.738 200.544 215.806C199.804 215.936 199.124 216.256 198.394 216.416C197.664 216.576 197.034 217.156 196.284 217.416C196.147 217.512 196.034 217.639 195.954 217.786V217.786C195.905 217.807 195.863 217.842 195.833 217.886C195.803 217.93 195.786 217.983 195.784 218.036C195.503 218.228 195.273 218.485 195.114 218.786L195.294 218.966C195.39 218.897 195.508 218.869 195.624 218.886C195.604 218.805 195.615 218.72 195.653 218.646C195.692 218.572 195.756 218.515 195.834 218.486L195.964 218.186L196.154 217.996C196.234 217.996 196.384 217.916 196.384 217.996C196.377 218.13 196.317 218.255 196.218 218.345C196.118 218.434 195.988 218.482 195.854 218.476C195.944 218.696 195.794 218.786 195.644 218.886C195.608 219.03 195.533 219.161 195.427 219.265C195.321 219.369 195.189 219.442 195.044 219.476L195.134 219.176C195.182 219.159 195.223 219.128 195.251 219.087C195.28 219.046 195.295 218.996 195.294 218.946L195.114 218.766L194.924 218.986C194.494 219.366 194.064 219.746 193.624 220.116C193.595 220.147 193.561 220.171 193.522 220.188C193.483 220.204 193.441 220.213 193.399 220.213C193.357 220.213 193.316 220.204 193.277 220.188C193.238 220.171 193.203 220.147 193.174 220.116C193.044 219.976 192.824 219.836 192.994 219.606C193.098 219.462 193.158 219.292 193.169 219.115C193.179 218.938 193.14 218.761 193.054 218.606C193.007 218.392 192.913 218.191 192.778 218.018C192.643 217.845 192.471 217.704 192.274 217.606C192.157 217.537 192.057 217.441 191.984 217.326C191.93 217.284 191.887 217.23 191.857 217.169C191.827 217.107 191.811 217.04 191.811 216.971C191.811 216.903 191.827 216.835 191.857 216.774C191.887 216.712 191.93 216.658 191.984 216.616C192.031 216.568 192.057 216.503 192.057 216.436C192.057 216.369 192.031 216.304 191.984 216.256C191.954 216.215 191.911 216.186 191.862 216.173C191.813 216.16 191.761 216.165 191.714 216.186C191.294 216.376 190.824 216.186 190.414 216.356C190.151 216.517 189.836 216.571 189.534 216.506C189.469 216.488 189.399 216.491 189.336 216.517C189.272 216.542 189.219 216.588 189.184 216.646C188.988 216.829 188.833 217.053 188.732 217.301C188.63 217.55 188.583 217.818 188.594 218.086C188.62 218.181 188.62 218.281 188.594 218.376C188.447 218.7 188.429 219.068 188.542 219.406C188.655 219.743 188.892 220.026 189.204 220.196C189.372 220.312 189.533 220.439 189.684 220.576C189.745 220.637 189.819 220.682 189.901 220.706C189.984 220.731 190.071 220.734 190.154 220.716C190.425 220.695 190.695 220.751 190.935 220.879C191.174 221.006 191.372 221.2 191.504 221.436C191.551 221.486 191.578 221.552 191.578 221.621C191.578 221.69 191.551 221.756 191.504 221.806C191.364 221.996 191.224 222.186 191.064 222.366C190.494 223.032 190.001 223.76 189.594 224.536C189.408 224.846 189.273 225.183 189.194 225.536C189.064 226.406 188.904 227.266 188.804 228.136C188.666 228.731 188.666 229.351 188.804 229.946C188.831 230.062 188.831 230.182 188.805 230.298C188.779 230.414 188.728 230.523 188.654 230.616C188.544 230.826 188.374 230.996 188.244 231.196C188.087 231.378 188 231.61 188 231.851C188 232.092 188.087 232.324 188.244 232.506C188.364 232.656 188.374 232.906 188.644 232.886C188.743 232.86 188.831 232.805 188.899 232.728C188.967 232.652 189.01 232.557 189.024 232.456C189.074 232.336 189.104 232.196 189.164 232.076C189.224 231.956 189.364 231.946 189.484 232.076C189.604 232.206 189.794 232.366 190.014 232.176C190.089 232.106 190.143 232.017 190.171 231.918C190.199 231.82 190.201 231.715 190.174 231.616C190.168 231.516 190.145 231.418 190.104 231.326C189.958 230.979 189.917 230.597 189.984 230.226C190.054 229.316 190.154 228.406 190.244 227.496C190.224 227.38 190.229 227.262 190.258 227.148C190.288 227.034 190.341 226.928 190.414 226.836C190.572 226.799 190.737 226.799 190.894 226.836C190.962 226.845 191.03 226.827 191.084 226.786C191.284 226.426 191.734 226.316 191.914 225.926C192.008 225.673 192.171 225.451 192.384 225.286C192.936 225.878 193.392 226.553 193.734 227.286C194.104 227.976 194.424 228.686 194.794 229.366C195.049 230.098 195.356 230.809 195.714 231.496C196.037 231.128 196.395 230.793 196.784 230.496L197.074 231.156C197.207 231.526 197.452 231.845 197.775 232.069C198.097 232.293 198.482 232.411 198.874 232.406C199.722 232.423 200.566 232.524 201.394 232.706C201.623 232.771 201.864 232.782 202.099 232.739C202.333 232.695 202.554 232.599 202.744 232.456C202.778 232.416 202.824 232.387 202.876 232.375C202.927 232.362 202.981 232.366 203.03 232.386C203.079 232.406 203.12 232.441 203.148 232.486C203.175 232.531 203.188 232.583 203.184 232.636C203.156 233.721 203.233 234.806 203.414 235.876C203.433 235.941 203.433 236.011 203.414 236.076C203.403 236.107 203.386 236.135 203.364 236.16C203.342 236.184 203.314 236.203 203.284 236.216C202.954 236.216 202.954 236.476 202.924 236.726C202.882 237.269 202.882 237.814 202.924 238.356C202.921 238.474 202.957 238.59 203.028 238.685C203.099 238.779 203.2 238.847 203.314 238.876C203.995 239.088 204.702 239.209 205.414 239.236C205.491 239.25 205.57 239.242 205.642 239.213C205.714 239.185 205.777 239.137 205.824 239.075C205.871 239.012 205.899 238.938 205.906 238.861C205.913 238.784 205.899 238.706 205.864 238.636C205.834 238.504 205.769 238.382 205.676 238.284C205.582 238.185 205.465 238.114 205.334 238.076C205.105 238.013 204.881 237.933 204.664 237.836C204.606 237.807 204.554 237.765 204.515 237.713C204.475 237.661 204.447 237.6 204.434 237.536C204.594 236.986 204.434 236.406 204.634 235.856C205.102 234.508 205.345 233.093 205.354 231.666C205.367 231.463 205.367 231.259 205.354 231.056C205.342 230.884 205.28 230.719 205.175 230.582C205.07 230.446 204.927 230.342 204.764 230.286C204.574 230.219 204.381 230.162 204.184 230.116C204.081 230.11 203.981 230.081 203.891 230.031C203.801 229.981 203.723 229.911 203.664 229.826C203.579 229.662 203.45 229.524 203.291 229.429C203.132 229.333 202.95 229.284 202.764 229.286C202.568 229.285 202.376 229.237 202.202 229.146C202.028 229.056 201.878 228.926 201.764 228.766L203.604 228.106C203.707 228.097 203.804 228.058 203.884 227.994C203.964 227.93 204.023 227.844 204.054 227.746C204.063 227.679 204.085 227.615 204.119 227.556C204.153 227.498 204.198 227.447 204.253 227.407C204.307 227.367 204.369 227.338 204.434 227.323C204.5 227.307 204.568 227.305 204.634 227.316C204.934 227.316 205.234 227.236 205.534 227.176C206.004 227.075 206.494 227.157 206.904 227.406C207.363 227.696 207.853 227.934 208.364 228.116C208.944 228.296 209.514 228.536 210.084 228.736C210.167 228.757 210.243 228.799 210.306 228.856C210.368 228.914 210.416 228.986 210.444 229.066C210.464 229.132 210.499 229.192 210.546 229.242C210.593 229.293 210.65 229.332 210.714 229.356C211.551 229.728 212.345 230.187 213.084 230.726C213.125 230.757 213.171 230.78 213.221 230.792C213.27 230.804 213.322 230.805 213.372 230.795C213.422 230.786 213.47 230.766 213.511 230.737C213.553 230.708 213.588 230.67 213.614 230.626C214.184 229.909 214.706 229.154 215.174 228.366C215.227 228.32 215.26 228.254 215.265 228.184C215.269 228.113 215.246 228.044 215.199 227.991C215.153 227.938 215.087 227.906 215.017 227.901C214.947 227.896 214.877 227.92 214.824 227.966V227.966ZM194.034 220.636C194.016 220.622 194.001 220.604 193.99 220.583C193.98 220.562 193.974 220.539 193.974 220.516C193.974 220.493 193.98 220.47 193.99 220.449C194.001 220.428 194.016 220.41 194.034 220.396C194.034 220.346 194.134 220.226 194.234 220.326C194.241 220.339 194.244 220.352 194.244 220.366C194.244 220.38 194.241 220.394 194.234 220.406C194.221 220.457 194.196 220.505 194.162 220.545C194.127 220.585 194.083 220.616 194.034 220.636V220.636ZM194.494 220.046C194.475 220.051 194.454 220.051 194.434 220.046L194.514 219.886C194.534 219.894 194.55 219.909 194.561 219.927C194.572 219.946 194.577 219.967 194.574 219.988C194.572 220.01 194.563 220.03 194.549 220.045C194.534 220.061 194.515 220.072 194.494 220.076V220.046ZM194.494 219.846L194.684 219.676C194.754 219.936 194.734 219.946 194.494 219.876V219.846ZM194.704 219.656C194.718 219.613 194.744 219.574 194.78 219.546C194.816 219.517 194.859 219.5 194.904 219.496C194.944 219.636 194.914 219.756 194.744 219.636L194.704 219.656ZM196.114 223.536L196.004 223.446L196.114 223.536ZM197.214 226.126L197.084 226.256L197.214 226.126ZM196.214 224.056C196.224 224.087 196.241 224.114 196.264 224.136V224.136C196.245 224.123 196.228 224.106 196.214 224.086V224.056ZM197.324 226.466L197.234 226.366L197.324 226.466C197.322 226.499 197.322 226.533 197.324 226.566C197.324 226.546 197.324 226.526 197.324 226.506V226.466ZM203.884 230.406C203.967 230.392 204.052 230.392 204.134 230.406C204.241 230.444 204.345 230.491 204.444 230.546C204.465 230.604 204.465 230.668 204.444 230.726C204.439 230.74 204.431 230.752 204.421 230.763C204.411 230.773 204.398 230.781 204.384 230.786C204.296 230.829 204.198 230.852 204.099 230.852C204.001 230.852 203.903 230.829 203.814 230.786C203.745 230.736 203.685 230.675 203.634 230.606C203.712 230.544 203.796 230.49 203.884 230.446V230.406Z" fill="#222221"/>
<path d="M313.61 196.133C310.783 194.687 307.736 193.715 304.594 193.256C303.685 193.123 302.796 192.943 301.904 192.777C298.932 192.213 296.099 191.076 293.562 189.429C291.42 187.997 289.406 186.382 287.542 184.602C285.398 182.608 283.329 180.545 281.104 178.632C279.218 176.951 277.015 175.664 274.625 174.845C272.235 174.026 269.706 173.692 267.185 173.862C265.787 173.942 264.386 173.954 262.972 173.985L258.789 174.16C254.726 174.383 250.691 173.36 247.224 171.23C245.74 170.355 244.333 169.356 243.018 168.243C239.945 165.502 236.937 162.712 234.036 159.826C227.944 153.562 220.142 149.231 211.604 147.374C209.22 146.868 206.978 145.84 205.039 144.363C203.363 143.079 201.746 141.738 200.179 140.345C197.196 137.679 194.282 134.951 191.355 132.241C191.275 132.138 191.21 132.024 191.16 131.903L192.135 130.832L199.829 122.279C200.241 121.638 200.798 121.102 201.456 120.717C201.603 120.606 201.717 120.456 201.784 120.285C202.051 119.807 202.267 119.301 202.576 118.857C203.715 117.23 204.924 115.643 206.017 113.996C208.133 110.91 209.906 107.602 211.303 104.131C214.176 97.0519 214.303 89.1547 211.658 81.9868C211.302 80.8931 210.671 79.9095 209.824 79.131C207.293 76.8459 204.531 74.8301 201.583 73.116C198.557 71.4144 195.423 69.9143 192.2 68.6255C185.907 66.1046 179.482 64.156 172.684 63.8427C169.485 63.6808 166.279 63.7075 163.066 63.6226C160.452 63.6058 157.843 63.851 155.278 64.3544L153.196 64.7481C152.709 64.0247 152.257 63.3619 151.818 62.6804C150.274 60.2314 148.236 58.1319 145.834 56.5164C141.149 53.4284 135.685 51.7307 130.074 51.6202C126.607 51.5553 123.139 51.6917 119.687 52.0286C113.355 52.5203 107.187 54.2864 101.554 57.2209C99.1655 58.4843 96.7873 59.765 94.474 61.1583C87.8589 65.07 82.626 70.9446 79.502 77.9661C77.7296 82.093 76.3665 86.384 75.4324 90.7773C74.4542 94.7581 73.8789 98.8271 73.7152 102.923C73.6535 104.656 73.5421 106.383 73.4221 108.115C73.4303 108.479 73.3319 108.837 73.1389 109.145C71.8126 110.691 70.6391 112.363 69.6348 114.135C68.7374 115.681 67.6598 117.135 66.6419 118.612C62.1812 125.142 58.8331 132.366 56.7336 139.99C55.2544 144.962 54.3385 150.084 54.0033 155.261C54.0356 156.809 53.7913 158.35 53.2818 159.811C53.1918 160.021 53.1533 160.249 53.1694 160.477C53.1599 160.723 53.2413 160.963 53.3982 161.153C53.5662 161.258 53.6962 161.414 53.7693 161.598C53.8425 161.782 53.8548 161.985 53.8046 162.177C53.7957 164.202 54.1887 166.208 54.9609 168.08C56.2382 170.887 58.2029 173.327 60.6733 175.174C64.7017 178.24 69.42 180.274 74.4156 181.096C82.3719 182.559 90.5155 182.696 98.5163 181.5C103.358 180.741 108.156 179.725 112.89 178.455C113.172 178.406 113.457 178.372 113.744 178.355C113.38 180.724 113.031 182.981 112.666 185.247C111.866 189.375 111.318 193.548 111.023 197.742C110.891 199.998 111.07 202.26 111.557 204.467C112.312 207.316 113.451 210.05 114.943 212.592C116.585 215.616 118.271 218.615 119.956 221.614C120.971 223.347 121.62 225.27 121.861 227.264C122.103 229.258 121.932 231.28 121.36 233.205C120.778 235.239 120.134 237.262 119.467 239.287C118.319 242.778 117.027 246.261 115.975 249.778C114.381 254.636 114.071 259.823 115.073 264.837C115.682 267.591 116.344 270.338 117.01 273.071C118.24 277.766 118.358 282.683 117.356 287.432C116.852 289.698 116.508 291.963 116.041 294.254C115.239 298.504 114.378 302.754 113.64 307.014C113.447 308.519 113.354 310.034 113.361 311.551C113.343 311.845 113.415 312.138 113.568 312.39C113.645 312.485 113.745 312.559 113.858 312.604C113.971 312.65 114.094 312.666 114.215 312.651C114.447 312.515 114.632 312.312 114.745 312.068C114.799 311.926 114.809 311.771 114.776 311.623C114.699 308.907 114.993 306.192 115.65 303.556C116.774 297.664 117.923 291.793 119.022 285.916C119.645 282.809 119.672 279.611 119.101 276.494C118.466 273.293 117.803 270.085 116.974 266.949C115.434 261.319 115.553 255.365 117.315 249.801C118.388 246.318 119.619 242.871 120.806 239.426C121.836 236.689 122.617 233.865 123.14 230.988C123.596 228.533 123.335 225.997 122.388 223.686C121.522 221.726 120.543 219.832 119.543 217.939C117.854 214.734 116.079 211.579 114.424 208.353C112.718 204.943 112.012 201.12 112.387 197.325C112.569 194.98 112.826 192.625 113.169 190.28C113.75 186.226 114.431 182.184 115.053 178.142C115.085 178.027 115.129 177.916 115.185 177.811L117.561 177.086L117.427 175.894L115.38 176.348C115.326 176.28 115.282 176.204 115.25 176.123C115.237 175.977 115.237 175.83 115.25 175.684C115.679 170.768 114.612 165.838 112.188 161.54C111.051 159.435 110.319 157.136 110.029 154.761L110.852 154.506L110.776 153.395L109.907 153.169C109.854 153.096 109.808 153.018 109.772 152.935C109.741 152.641 109.71 152.347 109.692 152.057C109.493 149.125 109.765 146.181 110.499 143.335C110.709 142.498 110.765 141.796 109.837 141.408C110.138 140.749 110.362 140.158 110.674 139.597C111.624 137.88 112.835 136.32 114.263 134.973C115.75 133.549 117.279 132.077 118.889 130.766C121.671 128.287 124.824 126.256 128.232 124.749C128.478 124.66 128.685 124.487 128.816 124.261C128.914 124.057 129.052 123.876 129.224 123.729C129.396 123.582 129.597 123.473 129.814 123.408C131.307 122.754 132.793 122.069 134.303 121.463C139.414 119.369 144.752 117.876 150.209 117.014C151.601 116.828 153.006 116.766 154.409 116.829C155.24 116.87 156.058 117.05 156.829 117.36C158.535 118.015 158.954 119.182 158.16 120.806C157.937 121.259 157.672 121.7 157.398 122.205L158.59 122.671C158.86 122.238 159.12 121.869 159.326 121.485C159.531 121.1 159.694 120.683 159.899 120.218C160.094 120.395 160.226 120.503 160.35 120.639C163.727 124.554 168.423 127.094 173.547 127.777C175.939 128.159 178.327 128.562 180.712 128.987C183.624 129.449 186.396 130.554 188.827 132.223C188.739 132.501 188.763 132.802 188.894 133.063C189.026 133.324 189.253 133.523 189.529 133.619L190.166 133.182C190.427 133.341 190.678 133.516 190.919 133.705C192.419 135.045 193.946 136.369 195.413 137.75C197.952 140.291 200.623 142.696 203.417 144.953C205.965 146.893 208.906 148.253 212.034 148.939C218.654 150.402 224.795 153.518 229.885 157.997C232.251 160.095 234.418 162.308 236.645 164.486C239.299 167.195 242.208 169.641 245.332 171.791C248.097 173.727 251.295 174.954 254.645 175.363C256.845 175.523 259.052 175.567 261.257 175.495C263.805 175.468 266.349 175.315 268.902 175.296C271.74 175.28 274.529 176.042 276.964 177.5C278.849 178.625 280.598 179.963 282.176 181.488C284.194 183.383 286.17 185.326 288.237 187.226C292.632 191.354 298.232 193.968 304.218 194.686C305.486 194.866 306.74 195.134 307.971 195.486C309.771 195.983 311.509 196.68 313.154 197.563C313.274 197.077 313.427 196.599 313.61 196.133V196.133ZM193.337 71.1334C193.651 71.0157 193.987 70.9708 194.321 71.002C194.655 71.0332 194.978 71.1396 195.265 71.3133C196.394 71.9086 197.577 72.438 198.901 73.0708C197.969 73.6169 196.885 73.8464 195.812 73.7251C194.738 73.6038 193.733 73.1381 192.947 72.3978C192.422 71.7886 192.586 71.3935 193.337 71.1334ZM74.7251 106.312L75.2349 99.3552C75.4994 96.5616 75.9819 93.7929 76.6778 91.0744C77.5584 86.783 78.8772 82.5934 80.6136 78.5714C83.5717 71.8695 88.5252 66.2434 94.7986 62.4605C97.2577 60.9598 99.7955 59.5755 102.35 58.2394C108.187 55.2829 114.572 53.5621 121.105 53.1845C124.056 52.9305 127.019 52.8349 129.981 52.8982C135.417 53.0152 140.708 54.6791 145.233 57.6949C147.418 59.1656 149.272 61.0762 150.677 63.3044C151.002 63.8673 151.392 64.4039 151.871 65.1323L148.164 66.1523C146.735 64.7372 145.316 63.3394 143.914 61.9317C141.967 59.9425 139.71 58.282 137.231 57.0149C135.952 56.342 134.586 55.8481 133.173 55.547C129.761 54.792 126.241 54.6573 122.782 55.1492C118.538 55.754 114.348 56.687 110.248 57.94C105.045 59.5485 100.249 62.2583 96.1869 65.8851C92.9057 68.8419 89.6158 71.8036 86.5515 75.0161C83.5506 78.1317 81.4826 82.0258 80.5821 86.2568C79.8023 89.7862 79.037 93.3073 78.2861 96.82C77.7623 99.1335 77.579 101.511 77.742 103.878C77.7835 104.16 77.7194 104.448 77.562 104.686C76.6718 105.604 75.7293 106.471 74.6758 107.507C74.728 106.957 74.6992 106.627 74.7251 106.312ZM142.534 64.9804C142.415 65.2762 142.243 65.5477 142.026 65.7815C141.957 65.8266 141.877 65.854 141.795 65.8613C141.712 65.8687 141.629 65.8558 141.552 65.8238C141.476 65.7917 141.408 65.7415 141.355 65.6775C141.303 65.6134 141.266 65.5375 141.25 65.4562C141.216 65.3922 141.198 65.321 141.197 65.2485C141.197 65.1761 141.214 65.1046 141.247 65.0402C141.28 64.9758 141.328 64.9203 141.387 64.8784C141.447 64.8366 141.515 64.8096 141.587 64.7998C141.91 64.8115 142.229 64.8724 142.534 64.9804V64.9804ZM138.728 61.8084C138.794 61.884 138.838 61.9763 138.855 62.0752C138.873 62.1741 138.863 62.2758 138.826 62.3694C138.79 62.463 138.729 62.5448 138.649 62.606C138.569 62.6672 138.475 62.7055 138.375 62.7167C138.12 62.7088 137.869 62.654 137.635 62.555C136.229 62.1197 134.901 61.6394 133.538 61.1791C133.429 61.1696 133.323 61.1362 133.227 61.0812C133.051 60.9247 132.93 60.715 132.882 60.4837C132.928 60.3767 132.999 60.2824 133.089 60.2084C133.179 60.1344 133.285 60.083 133.399 60.0584C133.694 60.0266 133.992 60.0639 134.27 60.1674C135.537 60.5752 136.799 61.0012 138.057 61.4455C138.291 61.5455 138.516 61.667 138.728 61.8084V61.8084ZM128.993 60.1661C128.927 60.2615 128.841 60.3411 128.74 60.3991C128.64 60.457 128.528 60.4919 128.412 60.5011C128.155 60.501 127.899 60.4572 127.656 60.3717C123.334 59.4694 118.837 59.9525 114.805 61.7524L114.207 62.0168C113.878 62.2068 113.466 62.2942 113.249 61.8772C113.031 61.4602 113.398 61.1559 113.75 60.9645C114.101 60.7732 114.342 60.6915 114.661 60.5425C117.634 59.2192 120.863 58.5695 124.116 58.6399C125.467 58.7362 126.81 58.9129 128.14 59.1689C128.361 59.1758 128.574 59.256 128.745 59.3969C128.831 59.5078 128.894 59.6347 128.93 59.7702C128.967 59.9056 128.976 60.047 128.958 60.1861L128.993 60.1661ZM109.994 63.6989C110.057 63.763 110.105 63.8408 110.134 63.9263C110.162 64.0118 110.171 64.1028 110.159 64.1922C110.147 64.2816 110.115 64.3671 110.065 64.4421C110.015 64.5171 109.948 64.5796 109.87 64.6248C109.53 64.6353 109.193 64.5699 108.882 64.4332C108.984 64.0768 109.133 63.7352 109.322 63.4166C109.564 63.4368 109.79 63.5443 109.959 63.7189L109.994 63.6989ZM60.7212 132.157C61.3766 132.357 61.9362 132.79 62.2947 133.374C62.6532 133.958 62.7859 134.653 62.6678 135.328C62.6121 136.118 62.3516 136.88 61.9119 137.539C61.4723 138.198 60.8686 138.731 60.1604 139.085C59.8721 139.242 59.5469 139.316 59.2193 139.302C58.8918 139.288 58.5743 139.185 58.3007 139.004L60.7212 132.157ZM57.9397 140.379C58.8182 140.624 59.7524 140.578 60.6024 140.247C61.4524 139.917 62.1725 139.32 62.6548 138.546C63.3096 137.793 63.7387 136.871 63.8928 135.885C64.0468 134.9 63.9195 133.891 63.5255 132.974C63.3435 132.484 63.0271 132.055 62.6126 131.737C62.198 131.419 61.7022 131.224 61.1819 131.175C61.3377 130.785 61.4762 130.404 61.668 130.017C63.4165 126.132 65.5262 122.42 67.9692 118.931C69.7004 116.349 71.474 113.801 73.2438 111.267C73.5528 110.911 73.8949 110.586 74.2653 110.296C74.442 110.182 74.5804 110.017 74.6626 109.824C74.6985 109.549 74.7935 109.285 74.941 109.051C75.0886 108.816 75.2852 108.616 75.5173 108.464C79.5729 104.405 84.0121 100.747 88.7728 97.5436C92.412 95.0268 96.0562 92.5187 99.8203 90.2184C103.585 87.9182 107.615 85.7184 111.532 83.5837C116.908 80.5953 122.387 77.8247 127.976 75.2447C134.037 72.4322 140.273 70.0122 146.644 67.9998C149.85 66.9321 153.128 66.0931 156.453 65.489C157.45 65.3943 158.452 65.3596 159.453 65.3851C159.733 65.3609 160.01 65.3022 160.276 65.2103C160.581 65.0572 160.906 64.9472 161.242 64.8835C166.106 64.8076 170.97 64.9821 175.816 65.4065C181.324 66.1852 186.707 67.6768 191.83 69.8439C191.955 69.904 192.076 69.9731 192.192 70.0507C192.194 70.132 192.177 70.2127 192.143 70.2866C190.93 71.345 191.307 72.6978 192.506 73.6339C193.472 74.4212 194.65 74.9059 195.891 75.0274C197.132 75.149 198.381 74.902 199.482 74.3173C199.745 74.139 200.059 74.049 200.377 74.0606C200.695 74.0721 201.001 74.1844 201.251 74.3814C202.807 75.4573 204.385 76.5095 205.95 77.5804C206.16 77.7246 206.332 77.9025 206.692 78.2258C206.171 78.2033 205.881 78.2207 205.605 78.1835C203.14 77.9134 200.687 77.632 198.248 77.3394C190.452 76.5098 182.584 76.6465 174.823 77.7463C166.411 78.805 158.137 80.76 150.142 83.578C138.247 87.7431 126.696 92.8329 115.595 98.8009C103.999 105.051 93.1412 112.583 83.2248 121.254C77.3322 126.232 71.8003 131.621 66.6709 137.382C63.0182 141.506 59.8088 146.002 57.0955 150.797C56.5824 151.728 56.1203 152.688 55.6395 153.635C55.8593 149.139 56.6318 144.687 57.9397 140.379V140.379ZM55.6265 158.793C55.7985 158.571 55.8924 158.299 55.8933 158.018C55.8943 157.738 55.8025 157.465 55.632 157.242C55.5947 156.956 55.6545 156.665 55.802 156.416C56.9657 153.599 58.3774 150.891 60.0204 148.323C63.9459 142.284 68.546 136.711 73.7318 131.712C81.2232 124.309 89.2792 117.499 97.8269 111.346C102.377 108.034 107.13 105.012 112.059 102.297C117.131 99.542 122.213 96.8043 127.413 94.3103C135.61 90.3641 144.054 86.9511 152.691 84.0925C155.252 83.2489 157.859 82.5637 160.456 81.803C160.579 81.7706 160.703 81.7452 160.828 81.7269C160.86 82.2626 160.881 82.7587 160.941 83.2434C161.118 83.9885 161.089 84.7677 160.857 85.4975C160.81 85.5666 160.779 85.6454 160.766 85.7282C160.753 85.811 160.759 85.8957 160.783 85.9759C160.807 86.0561 160.849 86.1299 160.905 86.1918C160.962 86.2538 161.031 86.3022 161.109 86.3336C161.273 86.3843 161.45 86.3703 161.604 86.2944C161.758 86.2185 161.876 86.0865 161.936 85.9256C161.992 85.8327 162.04 85.7354 162.08 85.6347C162.281 84.9462 162.324 84.2212 162.205 83.5138C162.087 82.8064 161.81 82.1349 161.395 81.5495C162.406 81.3006 163.321 81.0845 164.276 80.8793C172.503 79.0116 180.915 78.0828 189.351 78.1108C192.601 78.1397 195.856 78.4775 199.121 78.752C201.39 78.9428 203.642 79.2825 205.905 79.523C206.524 79.5451 207.114 79.7915 207.564 80.2164C199.44 94.1446 187.684 105.043 173.363 113.819C173.209 113.411 173.075 113.119 172.981 112.816C172.435 111.11 171.313 109.647 169.807 108.678C168.971 108.11 168.056 107.646 167.2 107.123L166.232 106.527C166.135 106.564 166.031 106.581 165.926 106.577C161.965 105.452 157.809 105.19 153.739 105.808L152.479 105.946C152.5 105.652 152.544 105.361 152.61 105.074C154.054 99.9699 154.712 94.6762 154.562 89.3744C154.56 87.9901 154.549 86.6109 154.489 85.248C154.47 84.1739 154.356 83.9164 153.903 83.9123C153.45 83.9081 153.305 84.2573 153.279 85.2311C153.193 88.5366 153.095 91.8459 152.983 95.159C152.779 98.4095 152.226 101.629 151.333 104.761C151.268 105.26 151.034 105.722 150.67 106.071C150.307 106.419 149.835 106.633 149.333 106.677C146.385 107.369 143.51 108.344 140.749 109.589C140.092 109.936 139.471 110.348 138.897 110.82C138.787 110.921 138.671 111.015 138.551 111.101L134.424 113.195C134.249 112.891 134.134 112.692 134.014 112.484C132.359 109.156 130.672 105.835 129.051 102.487C128.207 100.745 127.477 98.9614 126.699 97.1936C126.555 96.7818 126.375 96.3834 126.162 96.0028C126.08 95.8946 125.975 95.8067 125.854 95.7464C125.733 95.686 125.599 95.6546 125.464 95.6549C125.383 95.6723 125.307 95.709 125.242 95.7619C125.178 95.8149 125.127 95.8825 125.095 95.9591C125.062 96.0357 125.048 96.1191 125.054 96.2022C125.06 96.2853 125.087 96.3656 125.13 96.4365C125.506 97.4668 125.824 98.5185 126.3 99.5024C128.484 104.085 130.705 108.633 132.915 113.2C133.003 113.38 133.103 113.553 133.215 113.72C133.045 113.861 132.865 113.992 132.678 114.11C127.841 116.68 123.197 119.6 118.786 122.847C118.623 122.998 118.414 123.09 118.193 123.109C117.972 123.128 117.751 123.072 117.564 122.952C113.242 120.878 109.116 118.417 105.237 115.601C103.436 114.262 101.86 112.631 100.184 111.128C100.129 111.037 100.059 110.957 99.9769 110.89C99.7661 110.789 99.5294 110.756 99.2992 110.796C99.2191 110.903 99.1612 111.025 99.129 111.154C99.0967 111.284 99.0908 111.419 99.1116 111.551C99.2179 111.874 99.412 112.162 99.6722 112.382C101.485 114.002 103.223 115.713 105.175 117.172C108.493 119.587 112.026 121.691 115.731 123.456C116.151 123.664 116.55 123.895 117.041 124.166C115.221 125.633 113.519 126.985 111.808 128.342C109.205 130.422 106.785 132.722 104.578 135.219C104.448 135.399 104.277 135.544 104.078 135.643C103.879 135.742 103.66 135.79 103.438 135.784C96.0934 135.791 88.7665 135.066 81.5657 133.621C79.857 133.275 78.2044 132.694 76.6549 131.895C76.3393 131.717 75.9975 131.591 75.6423 131.521C75.5396 131.525 75.4393 131.553 75.3502 131.605C75.2611 131.656 75.186 131.729 75.1314 131.816C75.0747 132.047 75.1119 132.291 75.2349 132.495C75.3924 132.643 75.5793 132.755 75.7833 132.825C78.0241 133.991 80.4399 134.784 82.9358 135.174C89.1033 136.333 95.362 136.939 101.637 136.986L103.084 137.051L102.305 138.182C101.06 139.896 100.133 141.82 99.568 143.861C99.0944 145.395 99.0776 147.034 99.5196 148.577C99.9285 149.57 100.407 150.532 100.951 151.457C100.7 151.602 100.345 151.807 99.9687 151.955C97.1167 153.256 94.3061 154.647 91.41 155.811C83.8079 158.884 76.1197 161.568 68.1009 162.699C64.2357 163.297 60.3067 163.363 56.4237 162.893C56.0353 162.84 55.6491 162.752 55.2147 162.679C55.0163 161.37 55.1581 160.031 55.6265 158.793V158.793ZM113.815 176.859L105.569 178.895L113.727 170.005C114.049 172.276 114.078 174.579 113.815 176.859V176.859ZM111.254 162.841C111.093 163.053 110.921 163.256 110.739 163.45C108.478 165.731 106.057 167.846 103.494 169.781C103.141 170.019 102.825 170.307 102.555 170.635C102.473 170.747 102.417 170.876 102.392 171.012C102.367 171.149 102.373 171.289 102.41 171.423C102.456 171.496 102.518 171.557 102.592 171.602C102.665 171.647 102.748 171.674 102.834 171.681C102.92 171.688 103.006 171.676 103.087 171.645C103.167 171.613 103.239 171.564 103.297 171.5C104.118 170.922 104.897 170.391 105.63 169.76C107.389 168.248 109.105 166.68 110.836 165.138L111.827 164.254C112.52 165.348 113.014 166.556 113.286 167.822C113.303 168.116 113.205 168.405 113.012 168.627C110.752 171.632 108.256 174.451 105.548 177.059C104.918 177.577 104.257 178.055 103.569 178.491C103.327 178.602 103.114 178.768 102.948 178.976C102.868 179.171 102.732 179.338 102.558 179.455C102.383 179.573 102.177 179.635 101.966 179.635C92.9371 181.402 83.6556 181.448 74.6094 179.772C69.8418 178.962 65.344 177.001 61.5068 174.057C58.8653 172.098 56.8673 169.397 55.7679 166.297C55.5868 165.744 55.454 165.174 55.3299 164.599C55.3072 164.401 55.3042 164.202 55.321 164.003C55.4773 163.989 55.6345 163.987 55.7911 163.998C61.8612 164.807 68.0304 164.437 73.96 162.907C79.487 161.59 84.9021 159.842 90.1557 157.679C93.8948 156.155 97.5139 154.424 101.188 152.787L102.349 152.278C104.223 153.526 106.388 154.265 108.634 154.424C109.025 157.358 109.908 160.205 111.245 162.846L111.254 162.841ZM109.145 143.909C109.133 144.058 109.105 144.205 109.064 144.349C109.036 144.892 108.879 145.42 108.607 145.891C108.334 146.361 107.954 146.76 107.497 147.055C106.165 148.008 104.936 149.099 103.653 150.117C103.366 150.34 103.204 150.619 103.416 150.866C103.518 150.959 103.64 151.026 103.773 151.062C103.906 151.097 104.046 151.101 104.181 151.071C104.574 150.925 104.94 150.713 105.263 150.446C106.282 149.65 107.277 148.833 108.422 147.918L108.408 153.053C107.22 153.054 106.049 152.782 104.982 152.259C104.039 151.792 103.151 151.22 102.335 150.554C100.616 149.157 100.395 147.194 100.708 144.935L108.91 142.902C108.989 143.318 109.092 143.617 109.136 143.914L109.145 143.909ZM108.534 141.71L100.945 143.667C101.177 142.976 101.456 142.303 101.778 141.65C102.543 140.354 103.372 139.09 104.188 137.823C104.282 137.616 104.428 137.437 104.611 137.303C104.795 137.169 105.009 137.084 105.235 137.056C105.354 137.021 105.462 136.956 105.551 136.869C105.639 136.782 105.705 136.674 105.742 136.555C105.693 135.429 106.723 135.054 107.247 134.301C108.311 135.546 109.912 135.557 111.33 136.193C110.278 137.932 108.872 139.517 108.534 141.71ZM117.655 130.128C116.046 131.623 114.423 133.091 112.838 134.606C112.707 134.788 112.518 134.921 112.303 134.982C112.087 135.044 111.857 135.031 111.649 134.946C110.413 134.505 109.197 134.18 107.785 133.713C109.803 131.696 111.955 129.817 114.226 128.089C115.249 129.162 116.706 129.186 118.064 129.638C117.879 129.837 117.775 129.978 117.64 130.102L117.655 130.128ZM125.348 124.774C123.666 125.861 121.974 126.93 120.282 127.999C120.099 128.132 119.892 128.228 119.672 128.282C118.092 128.473 116.492 128.192 115.071 127.474C116.24 126.557 117.227 125.768 118.261 124.998C118.469 124.928 118.684 124.878 118.901 124.847C119.144 124.782 119.357 124.635 119.503 124.43C119.592 124.163 119.737 123.918 119.928 123.71C120.118 123.503 120.351 123.338 120.609 123.226L123.808 120.987L126.271 124.033C125.98 124.293 125.669 124.53 125.342 124.743L125.348 124.774ZM127.157 123.187L124.84 120.414C127.904 118.269 131.15 116.395 134.54 114.814L135.355 119.586L127.157 123.187ZM136.55 119.196L135.609 113.966C136.802 113.238 138.047 112.601 139.334 112.058C140.271 111.827 141.124 111.334 141.793 110.638C142.176 110.14 143.129 110.051 143.991 109.704C144.197 112.321 143.581 114.674 143.293 117.035L136.55 119.196ZM150.629 115.582L144.771 116.736L145.4 109.225C148.115 108.203 150.941 107.505 153.819 107.147C153.564 107.745 153.397 108.176 153.228 108.643C152.498 110.219 151.742 111.81 151.021 113.381C150.618 114.028 150.475 114.803 150.623 115.551L150.629 115.582ZM156.325 115.688L151.794 115.36C151.861 114.873 151.97 114.393 152.12 113.924C153.107 111.634 154.175 109.343 155.218 107.009C158.385 106.645 161.591 106.838 164.692 107.579C163.149 109.047 161.738 110.323 160.403 111.671C158.955 112.91 157.593 114.244 156.324 115.666L156.325 115.688ZM158.24 116.384C157.944 116.279 157.641 116.195 157.333 116.134L166.101 108.139C170.634 109.771 172.612 113.017 172.052 116.447C171.399 116.477 170.763 116.475 170.127 116.553C167.159 116.92 164.2 117.3 161.249 117.695C160.405 117.813 159.69 117.856 159.255 116.942C158.981 116.647 158.625 116.442 158.234 116.353L158.24 116.384ZM168.307 124.902C165.338 123.572 162.732 121.548 160.709 119L171.877 117.644C171.481 120.379 169.868 122.545 168.301 124.871L168.307 124.902ZM171.136 125.301C170.724 125.308 170.313 125.256 169.751 125.223C169.877 124.969 170.016 124.723 170.169 124.485C172.11 122.024 173.265 119.035 173.484 115.908C173.5 115.576 173.506 115.226 174.002 115.205C174.727 114.66 175.412 114.068 176.177 113.592C181.502 110.231 186.541 106.437 191.244 102.248C196.048 98.0498 200.333 93.2925 204.008 88.0776C205.559 85.843 207.002 83.5431 208.488 81.2766L209.213 80.2116C209.561 80.6813 209.871 81.1781 210.14 81.6971C212.927 88.6085 212.965 96.3241 210.247 103.263C208.887 106.782 207.118 110.128 204.976 113.234C203.684 115.135 202.254 116.999 200.926 118.898C200.419 119.615 199.69 120.145 198.852 120.407C195.061 121.788 191.194 122.949 187.269 123.884C184.01 124.609 180.69 125.025 177.353 125.129C175.318 125.184 173.206 125.226 171.13 125.27L171.136 125.301ZM182.953 128.108C180.443 127.56 177.903 127.121 175.372 126.538C175.65 126.487 175.931 126.452 176.213 126.434C182.545 126.302 188.817 125.171 194.797 123.083L197.988 122.049L198.2 122.296L189.992 131.261C187.868 129.761 185.477 128.68 182.947 128.077L182.953 128.108Z" fill="black"/>
<path d="M152.634 137.554L155.281 135.679L154.746 134.752L155.707 133.978L156.508 136.425L153.621 138.404L152.634 137.554Z" fill="black"/>
<path d="M128.53 151.366L123.531 152.566C123.474 152.399 123.429 152.228 123.397 152.055C123.388 151.869 123.389 151.684 123.4 151.499C124.878 150.76 126.498 150.865 128.03 150.338L128.53 151.366Z" fill="black"/>
<path d="M147.849 142.106L144.272 144.171L143.772 143.305C144.167 142.74 144.678 142.265 145.27 141.912C145.861 141.558 146.521 141.334 147.206 141.253L147.849 142.106Z" fill="black"/>
<path d="M117.452 152.797L121.422 151.994L121.468 153.273L117.457 154.087L117.452 152.797Z" fill="black"/>
<path d="M156.652 124.853L155.359 125.934L154.419 125.126L155.994 123.674L158.866 124.648L158.714 125.545C158.34 125.606 157.956 125.575 157.597 125.454C157.238 125.334 156.913 125.127 156.652 124.853Z" fill="black"/>
<path d="M134.078 171.754L133.517 170.622L137.388 169.068L137.685 170.283L134.078 171.754Z" fill="black"/>
<path d="M134.622 148.876L134.155 147.749C134.948 147.522 135.678 147.366 136.37 147.105C137.063 146.844 137.667 146.472 138.38 146.106L138.698 147.077L134.622 148.876Z" fill="black"/>
<path d="M124.307 175.131L124.093 173.881L127.045 172.892L127.457 174.086L124.307 175.131Z" fill="black"/>
<path d="M131.605 171.311L132.055 172.471L129.367 173.434L129.034 172.218L131.605 171.311Z" fill="black"/>
<path d="M161.472 132.763L160.459 131.927L162.651 130.165L163.61 130.985L161.472 132.763Z" fill="black"/>
<path d="M122.1 174.489L122.354 175.728L119.592 176.584L119.409 175.327L122.1 174.489Z" fill="black"/>
<path d="M151.725 162.119L152.285 163.089L149.757 164.352L149.076 163.452L151.725 162.119Z" fill="black"/>
<path d="M139.662 135.286L142.26 133.786L142.931 134.668L140.087 136.102L139.662 135.286Z" fill="black"/>
<path d="M115.467 153.1L115.396 154.376L112.864 154.591L112.78 153.346L115.467 153.1Z" fill="black"/>
<path d="M161.478 157.493L160.567 156.575L162.775 155.058L163.464 156.092L161.478 157.493Z" fill="black"/>
<path d="M172.849 147.429L173.738 148.347L171.751 149.945L170.891 149.056L172.849 147.429Z" fill="black"/>
<path d="M150.906 138.701L151.835 139.551L149.62 141.014L148.813 140.037L150.906 138.701Z" fill="black"/>
<path d="M144.763 133.761L144.018 132.771L146.121 131.394L146.838 132.436L144.763 133.761Z" fill="black"/>
<path d="M132.739 149.675L130.398 150.541L129.984 149.383L132.239 148.509L132.739 149.675Z" fill="black"/>
<path d="M123.991 143.663L123.882 142.514L126.393 141.584L126.711 142.555L123.991 143.663Z" fill="black"/>
<path d="M157.591 159.98L156.916 158.972L158.851 157.762L159.636 158.522C159.071 159.153 158.372 159.651 157.591 159.98V159.98Z" fill="black"/>
<path d="M153.79 127.256L152.283 128.507L150.899 127.989L152.941 126.326L153.79 127.256Z" fill="black"/>
<path d="M178.174 144.631L177.308 143.711L178.932 142.185L179.952 142.97L178.174 144.631Z" fill="black"/>
<path d="M134.464 138.044C134.857 138.544 134.818 138.856 134.304 139.106C133.564 139.464 132.834 139.84 132.029 140.246L131.729 139.427L134.464 138.044Z" fill="black"/>
<path d="M148.545 131.312L147.862 130.309L149.645 128.956L150.362 130.02L148.545 131.312Z" fill="black"/>
<path d="M166.188 152.591L166.971 153.547L165.258 154.86L164.406 153.943L166.188 152.591Z" fill="black"/>
<path d="M141.821 144.166L142.472 145.153L140.576 146.109L140.16 145.009L141.821 144.166Z" fill="black"/>
<path d="M181.897 139.399L182.856 140.22L181.49 141.574L180.422 140.805L181.897 139.399Z" fill="black"/>
<path d="M114.79 144.126L114.329 145.327L112.471 145.13L112.975 143.903L114.79 144.126Z" fill="black"/>
<path d="M184.704 136.681L185.628 137.522L184.339 138.809L183.326 138.055L184.704 136.681Z" fill="black"/>
<path d="M137.782 136.371L138.295 137.379L136.756 138.153L136.312 137.104L137.782 136.371Z" fill="black"/>
<path d="M142.476 166.801L144.064 166.011L144.748 166.955L143.182 167.744L142.476 166.801Z" fill="black"/>
<path d="M175.33 147.024L174.44 146.164L175.757 145.045L176.626 145.93L175.33 147.024Z" fill="black"/>
<path d="M154.194 162.056L153.479 161.037L155.072 160.117L155.864 161.069L154.194 162.056Z" fill="black"/>
<path d="M130.237 141.362L128.691 142.024L128.347 140.929L129.847 140.167L130.237 141.362Z" fill="black"/>
<path d="M169.313 150.244L170.036 151.235L168.679 152.285L167.81 151.4L169.313 150.244Z" fill="black"/>
<path d="M141.275 168.58L139.626 169.404L139.286 168.296L140.613 167.634L141.275 168.58Z" fill="black"/>
<path d="M159.828 134.035L158.267 135.191L157.796 133.996L158.851 133.202L159.828 134.035Z" fill="black"/>
<path d="M120.415 143.569C120.779 143.44 121.024 143.344 121.284 143.275C121.493 143.233 121.703 143.204 121.915 143.188L121.98 144.34L120.394 144.793L120.415 143.569Z" fill="black"/>
<path d="M118.396 145.092L116.651 145.13C116.601 144.004 117.127 143.954 118.412 144.021L118.396 145.092Z" fill="black"/>
<path d="M147.319 164.409L147.827 165.409L146.653 165.994L145.909 165.107L147.319 164.409Z" fill="black"/>
<path d="M186.124 135.261L187.15 134.218L188.061 135.055L187.108 136.125L186.124 135.261Z" fill="black"/>
<path d="M135.11 140.881L135.591 142.255L134.482 142.814L134.032 141.434L135.11 140.881Z" fill="black"/>
<path d="M116.69 147.198L116.161 148.542L114.944 148.633C115.417 147.332 115.545 147.235 116.69 147.198Z" fill="black"/>
<path d="M161.802 126.233L160.531 126.032L160.834 124.898L161.948 125.086L161.802 126.233Z" fill="black"/>
<path d="M125.042 145.204L126.113 144.898C126.327 146.01 126.327 146.01 125.101 146.325L125.042 145.204Z" fill="black"/>
<path d="M163.812 126.516L163.992 125.326L164.964 125.47L164.843 126.601L163.812 126.516Z" fill="black"/>
<path d="M135.425 145.388C135.129 144.554 135.129 144.554 136.143 144.292C136.483 145.019 136.483 145.019 135.425 145.388Z" fill="black"/>
<path d="M164.289 128.942C164.885 128.274 164.885 128.274 165.839 129.006L165.196 129.712L164.289 128.942Z" fill="black"/>
<path d="M126.233 148.166C126.311 149.021 126.311 149.021 125.179 149.201C125.147 148.285 125.147 148.285 126.233 148.166Z" fill="black"/>
<path d="M143.157 137.759L142.2 138.242L141.805 137.558C142.712 136.989 142.712 136.989 143.157 137.759Z" fill="black"/>
<path d="M167.224 126.105C167.412 126.357 167.57 126.63 167.694 126.919C167.677 127.118 167.608 127.309 167.494 127.473C167.266 127.433 167.053 127.333 166.876 127.183C166.835 126.841 166.841 126.495 166.895 126.156L167.224 126.105Z" fill="black"/>
<path d="M115.241 150.667C115.09 150.902 114.875 151.087 114.621 151.201C114.367 151.315 114.085 151.353 113.81 151.308C113.98 150.483 113.98 150.483 115.241 150.667Z" fill="black"/>
<path d="M152.699 130.507C151.755 131.052 151.755 131.052 151.349 130.328C152.227 129.809 152.227 129.809 152.699 130.507Z" fill="black"/>
<path d="M143.14 140.01C143.711 139.68 144.101 139.235 144.621 139.916C144.112 140.233 143.744 140.677 143.14 140.01Z" fill="black"/>
<path d="M154.433 132.531L153.51 133.272L153.011 132.728C153.189 132.536 153.428 132.411 153.687 132.375C153.946 132.339 154.21 132.394 154.433 132.531V132.531Z" fill="black"/>
<path d="M166.323 106.544C166.401 106.205 166.528 105.879 166.7 105.577C167.855 104.078 169.174 102.682 170.222 101.118C173.588 96.0293 176.415 90.6044 178.659 84.9308C179.38 83.1403 180.032 81.3091 180.681 79.5139C180.721 79.3383 180.8 79.1741 180.912 79.0341C180.985 78.9598 181.072 78.9011 181.169 78.8614C181.265 78.8218 181.368 78.802 181.472 78.8033C181.58 78.8537 181.676 78.9279 181.751 79.0204C181.826 79.1128 181.88 79.2212 181.907 79.3372C181.898 79.6609 181.828 79.9799 181.699 80.2771C180.445 84.2804 178.861 88.1728 176.963 91.9142C175.357 94.8511 173.828 97.8236 172.073 100.684C170.919 102.505 169.489 104.208 168.192 105.962C168.108 106.123 167.992 106.265 167.852 106.38C167.711 106.496 167.549 106.581 167.375 106.632C167.201 106.683 167.018 106.699 166.838 106.677C166.657 106.656 166.483 106.599 166.325 106.508V106.508L166.323 106.544Z" fill="black"/>
<path d="M87.9191 154.005C87.974 154.096 88.007 154.198 88.0154 154.303C88.0238 154.409 88.0075 154.515 87.9677 154.613C87.9279 154.711 87.8657 154.798 87.7861 154.868C87.7066 154.938 87.6118 154.988 87.5094 155.015C84.8517 155.672 82.1994 156.418 79.5301 156.955C77.2598 157.422 74.9615 157.722 72.6879 157.984C70.1267 158.308 67.5262 158.423 64.9474 158.677C63.7438 158.815 62.5252 158.737 61.3493 158.445C60.9668 158.342 60.6523 158.177 60.7717 157.704C60.7893 157.62 60.8243 157.541 60.8747 157.471C60.925 157.402 60.9895 157.343 61.0639 157.3C61.1383 157.257 61.221 157.231 61.3064 157.222C61.3919 157.213 61.4782 157.222 61.5598 157.249C64.1016 157.872 66.6852 157.027 69.2475 156.945C71.202 156.89 73.1619 156.625 75.1157 156.409C78.8263 155.836 82.4865 154.973 86.0628 153.83C86.4041 153.72 86.7602 153.662 87.1188 153.659C87.4064 153.719 87.6787 153.836 87.9191 154.005V154.005Z" fill="black"/>
<path d="M173.231 85.5703C173.213 85.7827 173.166 85.9918 173.094 86.1923C170.946 90.7118 168.808 95.2487 166.574 99.7599C165.971 100.974 165.197 102.114 164.483 103.277C164.347 103.499 164.195 103.71 164.028 103.909C163.739 104.249 163.445 104.719 162.921 104.352C162.397 103.985 162.831 103.596 163.041 103.22C164.079 101.397 165.189 99.6011 166.116 97.7265C167.813 94.2645 169.376 90.7523 170.995 87.2771C171.296 86.6587 171.65 86.0678 172.054 85.511C172.117 85.4078 172.206 85.3234 172.313 85.2668C172.42 85.2102 172.54 85.1836 172.66 85.1897C172.781 85.1957 172.898 85.2343 172.998 85.3013C173.099 85.3683 173.179 85.4613 173.231 85.5703V85.5703Z" fill="black"/>
<path d="M95.979 115.565C96.0029 115.306 96.0946 115.058 96.245 114.846C96.3677 114.796 96.5008 114.778 96.6323 114.793C96.7637 114.808 96.8895 114.855 96.9982 114.93C97.683 115.517 98.2433 116.267 98.9774 116.778C101.358 118.441 103.775 120.048 106.217 121.617C107.311 122.378 108.604 122.803 109.937 122.841C110.047 122.827 110.159 122.847 110.258 122.898C110.46 123.01 110.616 123.189 110.701 123.404C110.669 123.537 110.607 123.661 110.519 123.766C110.432 123.871 110.321 123.954 110.195 124.008C109.647 124.09 109.088 124.076 108.544 123.968C107.835 123.815 107.146 123.577 106.494 123.258C103.336 121.61 100.375 119.609 97.6686 117.292C97.0698 116.794 96.5859 116.196 95.979 115.565Z" fill="black"/>
<path d="M71.4736 135.14C71.6863 135.14 71.8983 135.165 72.1052 135.214C76.4545 136.558 80.9402 137.411 85.479 137.758C85.6999 137.781 85.9157 137.795 86.133 137.831C86.2157 137.832 86.2974 137.849 86.373 137.883C86.4486 137.916 86.5164 137.965 86.5722 138.026C86.6281 138.087 86.6707 138.159 86.6974 138.237C86.7241 138.316 86.7344 138.399 86.7275 138.481C86.7203 138.566 86.6959 138.648 86.656 138.723C86.616 138.799 86.5612 138.865 86.4949 138.918C86.4286 138.972 86.3521 139.011 86.2702 139.034C86.1882 139.057 86.1025 139.063 86.0181 139.052C85.833 139.063 85.6474 139.062 85.4624 139.05C81.1737 138.702 76.9307 137.925 72.7967 136.732C72.3122 136.596 71.8452 136.405 71.4049 136.161C71.3091 136.111 71.23 136.034 71.1772 135.939C71.1244 135.845 71.1002 135.737 71.1075 135.629C71.1148 135.521 71.1532 135.417 71.2182 135.33C71.2832 135.244 71.3719 135.178 71.4736 135.14V135.14Z" fill="black"/>
<path d="M150.506 100.608C150.405 100.662 150.291 100.687 150.177 100.679C150.063 100.672 149.953 100.632 149.86 100.565C149.768 100.499 149.696 100.407 149.652 100.301C149.609 100.195 149.596 100.08 149.616 99.9669C149.719 98.406 149.864 96.8562 149.923 95.298C150.016 92.6804 150.057 90.0706 150.111 87.4643C150.081 87.4124 150.098 87.3217 150.103 87.2498C150.081 87.1694 150.077 87.0857 150.088 87.0034C150.1 86.9212 150.128 86.8422 150.171 86.7711C150.214 86.6999 150.271 86.6382 150.338 86.5895C150.406 86.5407 150.482 86.506 150.563 86.4874C150.656 86.4761 150.75 86.4856 150.839 86.5154C150.928 86.5451 151.009 86.5943 151.077 86.6594C151.144 86.7244 151.196 86.8037 151.229 86.8914C151.262 86.9791 151.275 87.0731 151.267 87.1664C151.311 87.4528 151.331 87.7423 151.328 88.032C151.263 91.7335 151.184 95.4359 151.089 99.1392C151.082 99.4651 151.023 99.7878 150.914 100.095C150.804 100.285 150.667 100.458 150.506 100.608Z" fill="black"/>
<path d="M123.743 103.993C123.141 102.551 122.525 101.105 121.932 99.6572C121.79 99.3627 121.704 99.0442 121.679 98.7181C121.687 98.6 121.725 98.4857 121.787 98.3851C121.85 98.2846 121.936 98.2008 122.038 98.141C122.156 98.1292 122.275 98.1451 122.386 98.1874C122.497 98.2298 122.596 98.2975 122.676 98.385C122.828 98.6312 122.946 98.8969 123.028 99.1748C123.855 101.007 124.638 102.864 125.525 104.661C125.888 105.286 126.343 105.853 126.876 106.341C127.163 106.637 127.422 106.926 127.092 107.255C126.966 107.341 126.821 107.398 126.669 107.419C126.518 107.441 126.363 107.427 126.217 107.379C125.747 107.11 125.341 106.741 125.028 106.299C124.583 105.546 124.178 104.77 123.813 103.975L123.753 104.01L123.743 103.993Z" fill="black"/>
<path d="M157.885 83.7495C157.922 83.981 157.945 84.2145 157.954 84.4487C157.924 85.8976 157.9 87.3551 157.826 88.8067C157.802 89.2058 157.68 89.593 157.472 89.9345C157.384 90.0413 157.271 90.1251 157.143 90.1788C157.015 90.2325 156.876 90.2545 156.738 90.2429C156.627 90.1735 156.535 90.078 156.47 89.9648C156.404 89.8516 156.368 89.724 156.363 89.5934C156.458 87.8986 156.607 86.1962 156.734 84.4951C156.719 84.2795 156.747 84.0631 156.816 83.8584C156.869 83.7687 156.939 83.6909 157.024 83.6303C157.108 83.5696 157.204 83.5275 157.306 83.5065C157.516 83.5397 157.714 83.6231 157.885 83.7495V83.7495Z" fill="black"/>
<path d="M135.173 109.772C134.776 108.831 134.383 107.903 133.994 106.989C133.911 106.869 133.862 106.73 133.853 106.585C133.898 106.35 134.017 106.135 134.193 105.973C134.293 105.943 134.4 105.939 134.503 105.96C134.605 105.981 134.702 106.027 134.782 106.094C135 106.351 135.169 106.644 135.282 106.96C135.75 108.03 136.186 109.106 136.636 110.186C136.717 110.309 136.759 110.452 136.76 110.599C136.727 110.84 136.608 111.06 136.425 111.22C136.308 111.24 136.188 111.23 136.076 111.192C135.963 111.154 135.862 111.089 135.78 111.003C135.531 110.644 135.312 110.264 135.125 109.869L135.173 109.772Z" fill="black"/>
<path d="M163.387 70.0997C164.887 72.6978 163.566 75.3891 160.555 76.0537C158.809 76.4524 156.983 76.2957 155.331 75.6056C154.533 75.3523 153.844 74.8356 153.377 74.1402C152.911 73.4447 152.694 72.6115 152.762 71.7769C152.844 70.8782 153.214 70.0301 153.817 69.3592C154.421 68.6883 155.225 68.2306 156.11 68.0545C157.953 67.7144 159.854 67.8773 161.613 68.5262C162.375 68.8183 163.006 69.3775 163.387 70.0997ZM160.879 74.6543C161.427 74.4643 161.896 74.0963 162.211 73.609C162.526 73.1216 162.669 72.5429 162.617 71.9649C162.633 71.3829 162.437 70.8149 162.066 70.3665C161.694 69.9182 161.173 69.6201 160.598 69.5279C159.319 69.2807 158.022 69.1412 156.72 69.1111C156.097 69.1795 155.511 69.4413 155.044 69.8598C154.577 70.2784 154.253 70.8326 154.118 71.4446C153.963 71.9753 154.003 72.5438 154.231 73.0476C154.458 73.5514 154.858 73.9575 155.358 74.1927C156.201 74.6346 157.123 74.9031 158.072 74.9824C159.02 75.0617 159.974 74.9501 160.879 74.6543V74.6543Z" fill="black"/>
<path d="M91.9171 110.89C91.1282 111.377 90.2004 111.591 89.2777 111.497C88.355 111.404 87.4891 111.008 86.8144 110.372C86.1781 109.817 85.7787 109.039 85.6983 108.198C85.5937 107.238 85.6869 106.266 85.972 105.343C86.2572 104.42 86.7283 103.564 87.3563 102.83C87.6808 102.48 88.1034 102.236 88.5688 102.13C89.9238 101.794 91.3432 101.819 92.6858 102.201C93.3795 102.41 93.9894 102.833 94.4281 103.409C94.8667 103.986 95.1115 104.686 95.1275 105.41C95.2494 106.547 95.0032 107.693 94.4253 108.679C93.8474 109.665 92.9682 110.44 91.9171 110.89V110.89ZM91.2821 109.79C91.5419 109.64 91.793 109.495 92.0528 109.345C92.7618 108.901 93.3071 108.239 93.6061 107.458C93.9052 106.677 93.9419 105.82 93.7105 105.016C93.627 104.603 93.4151 104.227 93.1051 103.941C92.7951 103.656 92.4028 103.475 91.9843 103.426C91.2304 103.303 90.4642 103.272 89.7029 103.334C89.1295 103.412 88.593 103.661 88.1643 104.05C87.7311 104.502 87.3948 105.038 87.1759 105.625C86.9569 106.213 86.8599 106.838 86.8907 107.464C86.8621 108.003 87.0054 108.537 87.2998 108.99C87.5943 109.442 88.0248 109.79 88.5293 109.982C88.9732 110.163 89.4541 110.236 89.9317 110.193C90.4093 110.15 90.8697 109.994 91.2744 109.736L91.2821 109.79Z" fill="black"/>
<path d="M136.598 84.3999C135.793 84.7299 134.926 84.8845 134.056 84.8533C133.185 84.8221 132.332 84.6058 131.552 84.219C130.906 83.941 130.372 83.4557 130.033 82.8399C129.694 82.2241 129.57 81.5129 129.681 80.8188C129.867 79.429 130.579 78.1633 131.669 77.2811C132.049 76.9472 132.403 76.5845 132.728 76.1961C132.88 75.9844 133.086 75.8179 133.326 75.7144C133.565 75.6109 133.828 75.5742 134.086 75.6083C135.539 75.7116 136.92 76.2844 138.019 77.2404C140.073 79.2184 139.591 82.8225 136.598 84.3999ZM135.948 83.2741C136.382 83.1012 136.771 82.8345 137.089 82.4932C137.407 82.1519 137.646 81.7444 137.788 81.2999C137.946 80.832 137.988 80.333 137.912 79.8451C137.836 79.3573 137.643 78.895 137.35 78.4975C137.057 78.1 136.673 77.779 136.229 77.5618C135.786 77.3446 135.296 77.2376 134.803 77.2498C132.986 77.1438 131.133 79.1143 130.935 80.8914C130.842 81.3658 130.924 81.858 131.166 82.2767C131.408 82.6955 131.793 83.0125 132.25 83.169C132.838 83.4289 133.471 83.5698 134.113 83.5836C134.755 83.5973 135.394 83.4836 135.992 83.2491L135.948 83.2741Z" fill="black"/>
<path d="M113.625 95.6891C110.957 97.0679 108.83 96.7028 107.39 94.8896C106.977 94.3668 106.684 93.7591 106.533 93.1099C106.382 92.4608 106.377 91.7864 106.517 91.1349C106.657 90.4834 106.94 89.8709 107.345 89.3415C107.749 88.812 108.266 88.3786 108.858 88.0722C109.557 87.6719 110.334 87.4252 111.135 87.3485C111.937 87.2718 112.746 87.3668 113.509 87.6273C114.341 87.8055 115.079 88.2825 115.583 88.968C116.087 89.6534 116.323 90.4999 116.245 91.3474C116.267 92.2454 116.032 93.1309 115.568 93.9C115.104 94.6691 114.43 95.2898 113.625 95.6891V95.6891ZM109.558 89.0651C108.849 89.3427 108.269 89.8756 107.933 90.5591C107.597 91.2425 107.529 92.027 107.742 92.7583C107.887 93.4584 108.26 94.0906 108.803 94.5564C109.346 95.0223 110.027 95.2955 110.741 95.3336C111.84 95.3113 112.887 94.8623 113.66 94.0817C114.434 93.3011 114.873 92.2501 114.885 91.1512C114.904 90.6707 114.764 90.1974 114.487 89.8043C114.21 89.4112 113.811 89.1202 113.352 88.9763C112.751 88.7113 112.098 88.5823 111.44 88.5985C110.783 88.6148 110.138 88.7758 109.55 89.0701L109.558 89.0651Z" fill="black"/>
<path d="M73.4119 125.338C70.7238 126.682 68.2644 125.042 68.5203 122.065C68.7034 120.004 69.5788 118.066 71.0038 116.567C71.2876 116.276 71.6045 116.019 71.948 115.802C72.1127 115.662 72.3259 115.593 72.5413 115.61C73.2704 116.113 74.1508 115.777 74.9271 116.022C75.6408 116.222 76.2635 116.662 76.6895 117.269C77.1154 117.875 77.3184 118.61 77.2639 119.349C77.2162 120.601 76.8337 121.817 76.1561 122.87C75.4786 123.923 74.5309 124.775 73.4119 125.338V125.338ZM72.4434 116.74C71.5733 117.5 70.8856 118.446 70.4312 119.508C69.9768 120.57 69.7675 121.72 69.8188 122.874C69.8394 123.166 69.9298 123.449 70.0824 123.699C70.2351 123.95 70.4456 124.159 70.6961 124.311C70.9467 124.463 71.23 124.552 71.5223 124.572C71.8146 124.591 72.1073 124.54 72.3759 124.423C73.4566 124.011 74.3868 123.281 75.0432 122.329C75.6997 121.376 76.0515 120.247 76.0521 119.091C75.9851 117.975 74.8071 116.934 73.8511 117.278C73.725 117.345 73.586 117.385 73.4435 117.393C73.301 117.402 73.1582 117.38 73.0249 117.329C72.8915 117.278 72.7706 117.199 72.6703 117.098C72.57 116.996 72.4926 116.874 72.4434 116.74V116.74Z" fill="black"/>
<path d="M184.679 70.4973C184.896 70.8569 185.023 71.2633 185.051 71.6824C185.079 72.1016 185.006 72.5213 184.838 72.9064C184.671 73.2915 184.413 73.6309 184.087 73.8961C183.761 74.1613 183.377 74.3446 182.966 74.4306C182.004 74.6274 181.017 74.667 180.043 74.5478C179.608 74.5261 179.182 74.4098 178.797 74.207C178.411 74.0043 178.074 73.72 177.81 73.3739C177.545 73.0278 177.359 72.6282 177.264 72.2029C177.17 71.7775 177.169 71.3367 177.262 70.9111C177.403 70.0431 177.88 69.2657 178.59 68.7475C179.301 68.2293 180.187 68.0121 181.056 68.1431C181.788 68.269 182.487 68.5427 183.11 68.9474C183.732 69.3521 184.266 69.8795 184.679 70.4973ZM183.492 71.1016C182.894 70.253 182.024 69.6349 181.026 69.3501C180.514 69.238 179.979 69.321 179.526 69.5827C179.073 69.8445 178.733 70.2662 178.575 70.7651C178.477 71.0046 178.431 71.2624 178.44 71.5211C178.449 71.7798 178.514 72.0336 178.629 72.2654C178.744 72.4972 178.908 72.7017 179.108 72.8654C179.309 73.029 179.542 73.148 179.792 73.2143C180.71 73.4799 181.683 73.482 182.602 73.2204C182.82 73.1692 183.023 73.0671 183.194 72.9224C183.365 72.7777 183.5 72.5945 183.587 72.3878C183.674 72.1811 183.71 71.9569 183.694 71.7333C183.677 71.5098 183.608 71.2933 183.492 71.1016V71.1016Z" fill="black"/>
<path d="M78.3323 164.02C76.3452 164.578 74.4132 165.232 72.5383 165.645C69.6821 166.278 66.8142 166.79 63.9586 167.284C63.0434 167.39 62.1212 167.425 61.2005 167.387C60.9462 167.41 60.6905 167.362 60.4619 167.248C60.3638 167.185 60.2822 167.099 60.2239 166.998C60.1656 166.897 60.1324 166.784 60.1269 166.667C60.2509 166.461 60.4302 166.294 60.6445 166.184C60.7136 166.16 60.7882 166.157 60.859 166.175C64.2016 166.405 67.4744 165.474 70.7607 164.766C72.9144 164.296 75.041 163.599 77.1779 163.001C77.3985 162.943 77.604 162.859 77.8295 162.809C78.2409 162.722 78.7466 162.638 78.7837 163.182C78.7029 163.494 78.548 163.781 78.3323 164.02V164.02Z" fill="black"/>
<path d="M97.2279 158.988L89.2064 162.315C88.8954 162.467 88.5599 162.563 88.2154 162.598C88.0985 162.596 87.9841 162.564 87.8833 162.505C87.7824 162.446 87.6985 162.362 87.6396 162.261C87.653 162.014 87.7571 161.781 87.9319 161.607C88.087 161.498 88.262 161.421 88.4469 161.379L99.302 156.521C100.09 156.213 100.784 155.705 101.315 155.047C101.352 154.959 101.407 154.879 101.476 154.813C101.545 154.748 101.627 154.697 101.717 154.665C101.807 154.632 101.903 154.619 101.998 154.626C102.093 154.632 102.186 154.658 102.271 154.703C102.356 154.763 102.425 154.842 102.473 154.934C102.521 155.027 102.546 155.129 102.546 155.233C102.546 155.337 102.521 155.44 102.474 155.532C102.426 155.625 102.357 155.704 102.272 155.764C101.781 156.343 101.209 156.848 100.574 157.264C99.4237 157.951 98.1622 158.506 97.2279 158.988Z" fill="black"/>
<path d="M77.2425 166.912C73.6871 168.249 70.0499 169.358 66.3533 170.232C66.1743 170.278 65.992 170.31 65.8079 170.327C65.3752 170.358 64.9384 170.321 64.9286 169.784C64.9187 169.247 65.3442 169.244 65.7196 169.154C66.8855 168.874 68.0665 168.619 69.2247 168.285C71.7787 167.469 74.315 166.582 76.8663 165.721C77.2477 165.556 77.6461 165.435 78.0542 165.358C78.1852 165.361 78.3137 165.395 78.4294 165.456C78.5451 165.518 78.6449 165.606 78.7206 165.713C78.7217 165.833 78.6959 165.952 78.6451 166.061C78.5943 166.171 78.5198 166.267 78.427 166.344C78.0492 166.567 77.6529 166.757 77.2425 166.912V166.912Z" fill="black"/>
<path d="M173.963 115.216C174.147 115.084 174.344 114.97 174.551 114.876C179.387 112.893 183.63 109.981 187.868 107.061C189.718 105.785 191.544 104.488 193.385 103.218C193.645 103.005 193.937 102.836 194.251 102.718C194.387 102.681 194.529 102.672 194.668 102.691C194.808 102.709 194.942 102.755 195.064 102.826C195.131 102.879 195.182 102.948 195.215 103.027C195.247 103.106 195.258 103.191 195.248 103.276C195.238 103.36 195.206 103.441 195.156 103.51C195.106 103.579 195.04 103.634 194.963 103.669C194.358 104.122 193.73 104.554 193.102 104.986C189.999 107.113 186.898 109.261 183.762 111.349C181.261 112.987 178.626 114.412 175.886 115.607C175.675 115.7 175.46 115.782 175.242 115.852C174.345 116.139 174.251 116.136 173.984 115.193L173.963 115.216Z" fill="black"/>
<path d="M203.569 92.6962C203.315 92.7114 203.061 92.6684 202.827 92.5705C202.498 92.3214 202.639 91.9859 202.882 91.707C202.959 91.6234 203.041 91.5451 203.128 91.4727C204.922 89.8162 206.383 87.8323 207.432 85.6276C207.802 84.9288 208.264 84.6279 208.582 84.8596C209.148 85.2602 208.799 85.7157 208.582 86.1186C207.569 88.257 206.209 90.2129 204.556 91.9067C204.261 92.135 203.976 92.3806 203.569 92.6962Z" fill="black"/>
<path d="M172.437 122.194C172.721 122.146 172.946 122.096 173.173 122.069C174.708 121.888 176.231 121.666 177.77 121.551C178.452 121.533 179.133 121.614 179.792 121.793C179.898 121.871 179.983 121.973 180.039 122.092C180.096 122.211 180.122 122.341 180.115 122.473C180.048 122.576 179.957 122.662 179.85 122.724C179.743 122.786 179.623 122.821 179.5 122.828C177.512 122.544 175.588 123.192 173.627 123.216C173.285 123.246 172.941 123.24 172.6 123.197C172.502 123.164 172.413 123.107 172.341 123.032C172.269 122.956 172.217 122.865 172.189 122.765C172.221 122.556 172.306 122.36 172.437 122.194V122.194Z" fill="black"/>
</svg>
