<svg width="359" height="349" viewBox="0 0 359 349" fill="none" xmlns="http://www.w3.org/2000/svg">
<path d="M-1.35348e-05 144.568C-1.4186e-05 89.9613 21.2707 38.6204 59.878 3.44759e-06L61.7271 1.84907C-16.9694 80.5455 -16.9694 208.577 61.7271 287.273C99.8492 325.395 150.534 346.39 204.432 346.39C258.331 346.39 309.029 325.395 347.138 287.273L348.987 289.122C310.367 327.742 259.026 349 204.419 349C149.813 349 98.4722 327.729 59.8518 289.122C21.2576 250.515 -1.28837e-05 199.174 -1.35348e-05 144.568Z" fill="#0B315E"/>
<path d="M14.1499 144.568C14.1499 95.8101 32.7061 47.0657 69.8184 9.95337L71.6675 11.8024C-1.53429 85.0042 -1.53429 204.118 71.6675 277.333C144.869 350.534 263.996 350.534 337.198 277.333L339.047 279.182C264.822 353.406 144.043 353.406 69.8053 279.182C32.7061 242.069 14.1499 193.312 14.1499 144.568Z" fill="#0B315E"/>
<path d="M28.1293 144.568C28.1293 97.4756 46.4757 53.2031 79.7718 19.8938L81.6209 21.7429C48.8099 54.5538 30.7521 98.1706 30.7521 144.554C30.7521 190.951 48.8231 234.568 81.6209 267.366C114.432 300.177 158.049 318.235 204.433 318.235C250.829 318.235 294.446 300.164 327.244 267.366L329.093 269.215C295.797 302.511 251.511 320.858 204.419 320.858C157.327 320.858 113.055 302.511 79.7456 269.215C46.4757 235.932 28.1293 191.66 28.1293 144.568Z" fill="#0B315E"/>
<path d="M42.2792 144.568C42.2792 103.023 58.0946 61.4779 89.7253 29.8472L91.5743 31.6963C29.3358 93.9348 29.3358 195.2 91.5744 257.439C153.813 319.677 255.078 319.677 317.317 257.439L319.166 259.288C255.905 322.549 152.974 322.549 89.7253 259.288C58.0946 227.657 42.2792 186.112 42.2792 144.568Z" fill="#0B315E"/>
<path d="M56.3372 144.568C56.3372 106.629 70.7757 68.6774 99.6656 39.7875L101.515 41.6366C44.7577 98.3935 44.7577 190.728 101.515 247.472C158.272 304.229 250.606 304.229 307.35 247.472L309.199 249.321C251.433 307.088 157.419 307.088 99.6524 249.321C70.7756 220.458 56.3372 182.506 56.3372 144.568Z" fill="#0B315E"/>
<path d="M70.3954 144.568C70.3954 110.222 83.47 75.877 109.606 49.741L111.455 51.5901C60.1928 102.852 60.1928 186.27 111.455 237.532C136.293 262.37 169.314 276.048 204.433 276.048C239.552 276.048 272.572 262.37 297.41 237.532L299.259 239.381C273.936 264.717 240.247 278.657 204.433 278.657C168.618 278.657 134.929 264.704 109.606 239.381C83.47 213.245 70.3954 178.913 70.3954 144.568Z" fill="#0B315E"/>
<path d="M84.4535 144.568C84.4535 113.829 96.151 83.0897 119.559 59.6814L121.408 61.5305C75.6278 107.311 75.6278 181.798 121.408 227.579C167.189 273.359 241.676 273.359 287.457 227.579L289.306 229.428C242.502 276.231 166.35 276.231 119.546 229.428C96.1642 206.046 84.4535 175.307 84.4535 144.568Z" fill="#0B315E"/>
<path d="M358.39 226.136L350.836 218.569L358.39 218.569L358.39 226.136Z" fill="#0B315E"/>
<path d="M358.39 240.142L336.817 218.569L344.371 218.569L358.39 232.588L358.39 240.142Z" fill="#0B315E"/>
<path d="M358.39 282.08L294.892 218.569L302.328 218.569L358.39 274.631L358.39 282.08Z" fill="#0B315E"/>
<path d="M358.39 268.179L308.793 218.569L316.346 218.569L358.39 260.626L358.39 268.179Z" fill="#0B315E"/>
<path d="M358.39 254.16L322.798 218.569L330.365 218.569L358.39 246.607L358.39 254.16Z" fill="#0B315E"/>
</svg>
