<svg width="682" height="333" viewBox="0 0 682 333" fill="none" xmlns="http://www.w3.org/2000/svg">
<g opacity="0.81">
<g opacity="0.81">
<path opacity="0.81" d="M332.07 1L1 332.07" stroke="#4390E8" stroke-width="2" stroke-miterlimit="10"/>
<path opacity="0.81" d="M339.99 1L8.91998 332.07" stroke="#4390E8" stroke-width="2" stroke-miterlimit="10"/>
<path opacity="0.81" d="M347.92 1L16.84 332.07" stroke="#4390E8" stroke-width="2" stroke-miterlimit="10"/>
<path opacity="0.81" d="M355.84 1L24.77 332.07" stroke="#4390E8" stroke-width="2" stroke-miterlimit="10"/>
<path opacity="0.81" d="M363.76 1L32.69 332.07" stroke="#4390E8" stroke-width="2" stroke-miterlimit="10"/>
<path opacity="0.81" d="M371.69 1L40.61 332.07" stroke="#4390E8" stroke-width="2" stroke-miterlimit="10"/>
<path opacity="0.81" d="M379.61 1L48.54 332.07" stroke="#4390E8" stroke-width="2" stroke-miterlimit="10"/>
<path opacity="0.81" d="M387.53 1L56.46 332.07" stroke="#4390E8" stroke-width="2" stroke-miterlimit="10"/>
<path opacity="0.81" d="M395.46 1L64.39 332.07" stroke="#4390E8" stroke-width="2" stroke-miterlimit="10"/>
<path opacity="0.81" d="M403.38 1L72.31 332.07" stroke="#4390E8" stroke-width="2" stroke-miterlimit="10"/>
<path opacity="0.81" d="M411.31 1L80.23 332.07" stroke="#4390E8" stroke-width="2" stroke-miterlimit="10"/>
<path opacity="0.81" d="M419.23 1L88.16 332.07" stroke="#4390E8" stroke-width="2" stroke-miterlimit="10"/>
<path opacity="0.81" d="M427.15 1L96.08 332.07" stroke="#4390E8" stroke-width="2" stroke-miterlimit="10"/>
<path opacity="0.81" d="M435.08 1L104 332.07" stroke="#4390E8" stroke-width="2" stroke-miterlimit="10"/>
<path opacity="0.81" d="M443 1L111.93 332.07" stroke="#4390E8" stroke-width="2" stroke-miterlimit="10"/>
<path opacity="0.81" d="M450.92 1L119.85 332.07" stroke="#4390E8" stroke-width="2" stroke-miterlimit="10"/>
<path opacity="0.81" d="M458.85 1L127.77 332.07" stroke="#4390E8" stroke-width="2" stroke-miterlimit="10"/>
<path opacity="0.81" d="M466.77 1L135.7 332.07" stroke="#4390E8" stroke-width="2" stroke-miterlimit="10"/>
<path opacity="0.81" d="M474.69 1L143.62 332.07" stroke="#4390E8" stroke-width="2" stroke-miterlimit="10"/>
<path opacity="0.81" d="M482.62 1L151.55 332.07" stroke="#4390E8" stroke-width="2" stroke-miterlimit="10"/>
<path opacity="0.81" d="M490.54 1L159.47 332.07" stroke="#4390E8" stroke-width="2" stroke-miterlimit="10"/>
<path opacity="0.81" d="M498.47 1L167.39 332.07" stroke="#4390E8" stroke-width="2" stroke-miterlimit="10"/>
<path opacity="0.81" d="M506.39 1L175.32 332.07" stroke="#4390E8" stroke-width="2" stroke-miterlimit="10"/>
<path opacity="0.81" d="M514.31 1L183.24 332.07" stroke="#4390E8" stroke-width="2" stroke-miterlimit="10"/>
<path opacity="0.81" d="M522.24 1L191.16 332.07" stroke="#4390E8" stroke-width="2" stroke-miterlimit="10"/>
<path opacity="0.81" d="M530.16 1L199.09 332.07" stroke="#4390E8" stroke-width="2" stroke-miterlimit="10"/>
<path opacity="0.81" d="M538.08 1L207.01 332.07" stroke="#4390E8" stroke-width="2" stroke-miterlimit="10"/>
<path opacity="0.81" d="M546.01 1L214.93 332.07" stroke="#4390E8" stroke-width="2" stroke-miterlimit="10"/>
<path opacity="0.81" d="M553.93 1L222.86 332.07" stroke="#4390E8" stroke-width="2" stroke-miterlimit="10"/>
<path opacity="0.81" d="M561.85 1L230.78 332.07" stroke="#4390E8" stroke-width="2" stroke-miterlimit="10"/>
<path opacity="0.81" d="M569.78 1L238.71 332.07" stroke="#4390E8" stroke-width="2" stroke-miterlimit="10"/>
<path opacity="0.81" d="M577.7 1L246.63 332.07" stroke="#4390E8" stroke-width="2" stroke-miterlimit="10"/>
<path opacity="0.81" d="M585.63 1L254.55 332.07" stroke="#4390E8" stroke-width="2" stroke-miterlimit="10"/>
<path opacity="0.81" d="M593.55 1L262.48 332.07" stroke="#4390E8" stroke-width="2" stroke-miterlimit="10"/>
<path opacity="0.81" d="M601.47 1L270.4 332.07" stroke="#4390E8" stroke-width="2" stroke-miterlimit="10"/>
<path opacity="0.81" d="M609.4 1L278.32 332.07" stroke="#4390E8" stroke-width="2" stroke-miterlimit="10"/>
<path opacity="0.81" d="M617.32 1L286.25 332.07" stroke="#4390E8" stroke-width="2" stroke-miterlimit="10"/>
<path opacity="0.81" d="M625.24 1L294.17 332.07" stroke="#4390E8" stroke-width="2" stroke-miterlimit="10"/>
<path opacity="0.81" d="M633.17 1L302.09 332.07" stroke="#4390E8" stroke-width="2" stroke-miterlimit="10"/>
<path opacity="0.81" d="M641.09 1L310.02 332.07" stroke="#4390E8" stroke-width="2" stroke-miterlimit="10"/>
<path opacity="0.81" d="M649.01 1L317.94 332.07" stroke="#4390E8" stroke-width="2" stroke-miterlimit="10"/>
<path opacity="0.81" d="M656.94 1L325.87 332.07" stroke="#4390E8" stroke-width="2" stroke-miterlimit="10"/>
<path opacity="0.81" d="M664.86 1L333.79 332.07" stroke="#4390E8" stroke-width="2" stroke-miterlimit="10"/>
<path opacity="0.81" d="M672.79 1L341.71 332.07" stroke="#4390E8" stroke-width="2" stroke-miterlimit="10"/>
<path opacity="0.81" d="M680.71 1L349.64 332.07" stroke="#4390E8" stroke-width="2" stroke-miterlimit="10"/>
</g>
</g>
</svg>
