<svg width="90" height="90" viewBox="0 0 90 90" fill="none" xmlns="http://www.w3.org/2000/svg">
<g clip-path="url(#clip0)">
<path d="M44.9999 0L84.7724 22.5V67.5L44.9999 90L5.22742 67.5V22.5L44.9999 0Z" fill="white"/>
<path d="M77.67 65.9475L46.3125 83.685V69.87L65.85 59.1225L77.67 65.9475ZM79.815 64.005V26.9101L68.34 33.5326V57.375L79.815 64.005ZM12.2025 65.9475L43.56 83.685V69.87L24.0225 59.1225L12.2025 65.9475ZM10.0575 64.005V26.9101L21.5325 33.5326V57.375L10.0575 64.005ZM11.4 24.5101L43.56 6.31506V19.6726L22.9575 31.0051L22.8 31.0951L11.4 24.5101ZM78.4725 24.5101L46.3125 6.31506V19.6726L66.915 31.0051L67.0725 31.0951L78.4725 24.5101Z" fill="#8ED6FB"/>
<path d="M43.5598 66.7275L24.2848 56.13V35.13L43.5598 46.26V66.7275ZM46.3123 66.7275L65.5873 56.13V35.13L46.3123 46.26V66.7275ZM25.5898 32.7L44.9398 22.0575L64.2898 32.7L44.9398 43.875L25.5898 32.7Z" fill="#1C78C0"/>
</g>
<defs>
<clipPath id="clip0">
<rect width="90" height="90" fill="white"/>
</clipPath>
</defs>
</svg>
