<?xml version="1.0" encoding="UTF-8"?>
<svg xmlns="http://www.w3.org/2000/svg" xmlns:xlink="http://www.w3.org/1999/xlink" width="60px" height="90px" viewBox="0 0 60 60" version="1.1">
<g id="surface1">
<path style=" stroke:none;fill-rule:nonzero;fill:rgb(0%,61.56863%,87.058824%);fill-opacity:1;" d="M 30.015625 0.00390625 C 46.574219 0.0117188 59.996094 13.4375 59.996094 30 L 59.996094 30.011719 C 59.992188 46.574219 46.558594 60 29.992188 59.996094 C 13.425781 59.988281 0.00390625 46.554688 0.0078125 29.988281 C 0.015625 13.425781 13.449219 0 30.015625 0.00390625 Z M 29.859375 7.71875 C 29.039062 10.835938 26.261719 13.605469 23.351562 16.515625 C 19 20.875 14.054688 25.808594 14.054688 33.21875 C 14.066406 41.9375 21.125 49 29.839844 49.023438 C 38.574219 49.023438 45.65625 41.949219 45.664062 33.21875 C 45.664062 25.808594 40.734375 20.878906 36.371094 16.515625 L 35.980469 16.125 C 33.21875 13.355469 30.644531 10.699219 29.859375 7.71875 Z M 30.074219 31.386719 C 31.890625 33.320312 33.042969 34.652344 34.234375 36.109375 C 34.324219 36.21875 34.40625 36.332031 34.476562 36.460938 C 35.9375 38.566406 35.742188 41.40625 34 43.285156 C 31.953125 45.503906 28.496094 45.640625 26.277344 43.59375 C 24.0625 41.542969 23.925781 38.085938 25.972656 35.871094 C 27.136719 34.496094 28.542969 33.140625 30.074219 31.386719 Z M 22.851562 24.132812 L 23.617188 24.855469 L 27.15625 28.476562 C 27.289062 28.628906 27.289062 28.851562 27.15625 29.007812 L 23.453125 33.097656 L 22.160156 34.671875 C 21.667969 35.273438 21.25 35.929688 20.917969 36.628906 C 20.871094 36.746094 20.769531 36.832031 20.648438 36.859375 L 20.515625 36.859375 C 20.15625 36.828125 19.746094 36.167969 19.746094 36.167969 L 19.679688 36.066406 C 19.59375 35.933594 19.515625 35.796875 19.445312 35.65625 L 19.375 35.503906 C 18.871094 33.855469 18.828125 32.101562 19.253906 30.429688 L 19.304688 30.257812 C 19.695312 28.871094 20.316406 27.554688 21.140625 26.371094 C 21.667969 25.59375 22.238281 24.847656 22.851562 24.132812 Z M 29.882812 16.8125 C 30.828125 17.886719 31.890625 18.960938 32.890625 19.960938 L 32.914062 20.03125 C 35.007812 21.984375 36.902344 24.140625 38.570312 26.46875 C 39.984375 28.457031 40.757812 30.828125 40.785156 33.265625 C 40.785156 34.320312 40.625 35.367188 40.3125 36.375 L 40.296875 36.417969 C 40.214844 36.621094 40.03125 36.769531 39.8125 36.808594 L 39.710938 36.808594 C 39.496094 36.738281 39.3125 36.589844 39.199219 36.394531 L 39.03125 36.144531 C 38.128906 34.804688 37.113281 33.546875 35.992188 32.386719 L 34.546875 30.859375 L 29.734375 25.84375 C 28.921875 25.0625 27.46875 23.660156 26.855469 22.898438 C 26.835938 22.855469 26.8125 22.816406 26.785156 22.777344 C 26.617188 22.550781 26.488281 22.296875 26.402344 22.027344 L 26.402344 21.875 C 26.320312 21.386719 26.386719 20.882812 26.59375 20.433594 C 26.726562 20.144531 26.910156 19.882812 27.136719 19.660156 C 28.070312 18.730469 29 17.816406 29.882812 16.8125 Z M 29.882812 16.8125 "/>
</g>
</svg>
