<svg width="80" height="90" viewBox="0 0 80 90" fill="none" xmlns="http://www.w3.org/2000/svg">
<g clip-path="url(#clip0)">
<path d="M79.2715 45.008C79.2715 39.7757 72.6952 34.8171 62.6125 31.7421C64.9393 21.5028 63.9052 13.3565 59.3486 10.7484C58.2983 10.1366 57.0703 9.84679 55.7292 9.84679V13.437C56.4725 13.437 57.0703 13.5819 57.5712 13.8556C59.7687 15.1113 60.722 19.8929 59.9788 26.0429C59.801 27.5562 59.5102 29.1501 59.1547 30.7761C55.9877 30.0033 52.5299 29.4076 48.8943 29.0213C46.713 26.0429 44.4509 23.3381 42.1726 20.9715C47.4401 16.0934 52.3845 13.4209 55.7454 13.4209V9.83069C51.3019 9.83069 45.485 12.9862 39.6034 18.46C33.7219 13.0184 27.905 9.89509 23.4615 9.89509V13.4853C26.8062 13.4853 31.7668 16.1417 37.0343 20.9876C34.7722 23.3542 32.51 26.0429 30.361 29.0213C26.7093 29.4076 23.2515 30.0033 20.0845 30.7922C19.7129 29.1822 19.4382 27.6206 19.2443 26.1234C18.4848 19.9734 19.422 15.1918 21.6033 13.92C22.0881 13.6302 22.7183 13.5014 23.4615 13.5014V9.91119C22.1042 9.91119 20.8762 10.201 19.8098 10.8128C15.2694 13.4209 14.2514 21.5511 16.5943 31.7582C6.54402 34.8493 0 39.7918 0 45.008C0 50.2404 6.57633 55.199 16.659 58.274C14.3322 68.5132 15.3663 76.6596 19.9229 79.2677C20.9732 79.8795 22.2012 80.1693 23.5585 80.1693C28.0019 80.1693 33.8189 77.0138 39.7004 71.5399C45.5819 76.9816 51.3988 80.1049 55.8423 80.1049C57.1996 80.1049 58.4276 79.8151 59.494 79.2033C64.0345 76.5952 65.0524 68.465 62.7095 58.2579C72.7275 55.1829 79.2715 50.2243 79.2715 45.008ZM58.2337 34.2697C57.6358 36.3465 56.8926 38.4877 56.0524 40.629C55.3899 39.341 54.6951 38.0531 53.9357 36.7651C53.1924 35.4771 52.4006 34.2214 51.6089 32.9978C53.9033 33.3359 56.117 33.7545 58.2337 34.2697ZM50.8333 51.4156C49.573 53.589 48.2803 55.6498 46.9392 57.5656C44.5317 57.7749 42.0918 57.8876 39.6358 57.8876C37.1959 57.8876 34.756 57.7749 32.3646 57.5817C31.0235 55.6659 29.7147 53.6212 28.4544 51.4639C27.2264 49.3549 26.1115 47.2136 25.0935 45.0563C26.0953 42.899 27.2264 40.7417 28.4382 38.6326C29.6985 36.4592 30.9912 34.3985 32.3323 32.4826C34.7399 32.2733 37.1797 32.1607 39.6358 32.1607C42.0756 32.1607 44.5155 32.2733 46.9069 32.4665C48.248 34.3824 49.5568 36.427 50.8171 38.5843C52.0452 40.6934 53.1601 42.8346 54.178 44.9919C53.1601 47.1493 52.0452 49.3066 50.8333 51.4156ZM56.0524 49.3227C56.9249 51.48 57.6682 53.6373 58.2822 55.7303C56.1655 56.2455 53.9357 56.6801 51.6251 57.0182C52.4168 55.7786 53.2085 54.5067 53.9518 53.2027C54.6951 51.9147 55.3899 50.6106 56.0524 49.3227ZM39.6681 66.5008C38.1654 64.9553 36.6627 63.2326 35.1761 61.349C36.6304 61.4134 38.1169 61.4617 39.6196 61.4617C41.1385 61.4617 42.6412 61.4295 44.1115 61.349C42.6573 63.2326 41.1546 64.9553 39.6681 66.5008ZM27.6465 57.0182C25.352 56.6801 23.1384 56.2616 21.0217 55.7464C21.6195 53.6695 22.3628 51.5283 23.203 49.3871C23.8655 50.675 24.5603 51.963 25.3197 53.251C26.0791 54.5389 26.8547 55.7947 27.6465 57.0182ZM39.5873 23.5152C41.09 25.0608 42.5927 26.7834 44.0792 28.6671C42.625 28.6027 41.1385 28.5544 39.6358 28.5544C38.1169 28.5544 36.6142 28.5866 35.1438 28.6671C36.598 26.7834 38.1007 25.0608 39.5873 23.5152ZM27.6303 32.9978C26.8386 34.2375 26.0468 35.5093 25.3035 36.8134C24.5603 38.1014 23.8655 39.3893 23.203 40.6773C22.3305 38.5199 21.5872 36.3626 20.9732 34.2697C23.0899 33.7706 25.3197 33.3359 27.6303 32.9978ZM13.0073 53.1544C7.28729 50.7233 3.58709 47.5356 3.58709 45.008C3.58709 42.4804 7.28729 39.2766 13.0073 36.8617C14.3968 36.266 15.9157 35.7347 17.483 35.2356C18.404 38.3911 19.6159 41.6754 21.1186 45.0402C19.6321 48.3889 18.4364 51.6571 17.5315 54.7965C15.9319 54.2974 14.413 53.75 13.0073 53.1544ZM21.7003 76.1605C19.5028 74.9047 18.5495 70.1232 19.2927 63.9732C19.4705 62.4598 19.7613 60.866 20.1168 59.24C23.2838 60.0127 26.7416 60.6084 30.3772 60.9948C32.5585 63.9732 34.8207 66.6779 37.0989 69.0445C31.8314 73.9227 26.887 76.5952 23.5262 76.5952C22.799 76.5791 22.185 76.4342 21.7003 76.1605ZM60.0273 63.8927C60.7867 70.0427 59.8495 74.8242 57.6682 76.0961C57.1834 76.3859 56.5533 76.5147 55.81 76.5147C52.4653 76.5147 47.5047 73.8583 42.2372 69.0123C44.4993 66.6457 46.7615 63.9571 48.9105 60.9787C52.5622 60.5923 56.02 59.9966 59.187 59.2078C59.5587 60.8338 59.8495 62.3955 60.0273 63.8927ZM66.2481 53.1544C64.8585 53.75 63.3397 54.2813 61.7723 54.7804C60.8513 51.6249 59.6395 48.3406 58.1368 44.9758C59.6233 41.6271 60.819 38.3589 61.7239 35.2195C63.3235 35.7186 64.8424 36.266 66.2643 36.8617C71.9842 39.2927 75.6844 42.4804 75.6844 45.008C75.6683 47.5356 71.9681 50.7394 66.2481 53.1544Z" fill="#61DAFB"/>
<path d="M39.6196 52.3654C43.6978 52.3654 47.0038 49.0714 47.0038 45.008C47.0038 40.9446 43.6978 37.6505 39.6196 37.6505C35.5414 37.6505 32.2354 40.9446 32.2354 45.008C32.2354 49.0714 35.5414 52.3654 39.6196 52.3654Z" fill="#61DAFB"/>
</g>
<defs>
<clipPath id="clip0">
<rect width="79.2715" height="90" fill="white"/>
</clipPath>
</defs>
</svg>
