<svg width="90" height="90" viewBox="0 0 90 90" fill="none" xmlns="http://www.w3.org/2000/svg">
<mask id="mask0" mask-type="alpha" maskUnits="userSpaceOnUse" x="0" y="0" width="90" height="90">
<path d="M45 0C69.873 0 90 20.127 90 45C90 69.873 69.873 90 45 90C20.127 90 0 69.873 0 45C0 20.127 20.127 0 45 0Z" fill="white"/>
</mask>
<g mask="url(#mask0)">
<g filter="url(#filter0_d)">
<path d="M45 1.05469C69.2895 1.05469 88.9453 20.7105 88.9453 45C88.9453 69.2895 69.2895 88.9453 45 88.9453C20.7105 88.9453 1.05469 69.2895 1.05469 45C1.05469 20.7105 20.7105 1.05469 45 1.05469Z" fill="black"/>
</g>
<path d="M45 1.05469C69.2895 1.05469 88.9453 20.7105 88.9453 45C88.9453 69.2895 69.2895 88.9453 45 88.9453C20.7105 88.9453 1.05469 69.2895 1.05469 45C1.05469 20.7105 20.7105 1.05469 45 1.05469Z" fill="white"/>
<path d="M45 2.59662C68.4377 2.59662 87.4034 21.5624 87.4034 45C87.4034 68.4376 68.4377 87.4033 45 87.4033C21.5624 87.4033 2.59668 68.4376 2.59668 45C2.59668 21.5624 21.5624 2.59662 45 2.59662Z" fill="#5C5C5E"/>
<path d="M67.5123 63.6574C65.9704 68.4376 63.6574 71.9838 60.4195 74.6051C57.1817 77.2267 52.8638 78.6143 47.4673 79.0769L46.388 71.9838C49.9342 71.5215 52.5554 70.7505 54.2517 69.5169C54.8684 69.0543 56.102 67.6666 56.102 67.6666L43.3037 26.6509H53.9434L61.3445 57.3353L69.2086 26.6509H79.5396L67.5127 63.6574H67.5123ZM30.3515 25.2633C32.8187 25.2633 35.1317 25.5716 36.9819 26.3426C38.9865 27.1136 40.8368 28.1929 42.6871 29.7348L38.3699 35.5943C37.1359 34.669 35.9026 34.0524 34.8233 33.5897C33.744 33.127 32.3561 32.9727 31.1224 32.9727C25.8799 32.9727 23.2587 36.9819 23.2587 45.1543C23.2587 49.3175 23.8753 52.2471 25.2633 53.9434C26.6509 55.7937 28.5012 56.5647 31.1224 56.5647C32.3564 56.5647 33.5897 56.4103 34.669 55.9477C35.7483 55.4854 36.9819 54.8684 38.5239 53.9434L42.8411 60.1109C39.2949 63.0408 35.286 64.4284 30.6601 64.4284C26.9592 64.4284 23.8753 63.6574 21.1001 62.1155C18.4785 60.5735 16.3199 58.2606 14.9323 55.331C13.5443 52.4015 12.7737 49.0092 12.7737 45C12.7737 41.1451 13.5443 37.5986 14.9323 34.669C16.3199 31.5851 18.4785 29.2725 21.1001 27.5762C23.7213 26.1883 26.8052 25.2629 30.3515 25.2629V25.2633Z" fill="white"/>
</g>
<defs>
<filter id="filter0_d" x="-2.94531" y="-2.94531" width="95.8906" height="95.8906" filterUnits="userSpaceOnUse" color-interpolation-filters="sRGB">
<feFlood flood-opacity="0" result="BackgroundImageFix"/>
<feColorMatrix in="SourceAlpha" type="matrix" values="0 0 0 0 0 0 0 0 0 0 0 0 0 0 0 0 0 0 127 0"/>
<feOffset/>
<feGaussianBlur stdDeviation="2"/>
<feColorMatrix type="matrix" values="0 0 0 0 0 0 0 0 0 0 0 0 0 0 0 0 0 0 0.3 0"/>
<feBlend mode="normal" in2="BackgroundImageFix" result="effect1_dropShadow"/>
<feBlend mode="normal" in="SourceGraphic" in2="effect1_dropShadow" result="shape"/>
</filter>
</defs>
</svg>
